<svg width="155" height="512" viewBox="0 0 155 512" fill="none" xmlns="http://www.w3.org/2000/svg">
<line y1="-1.5" x2="510.196" y2="-1.5" transform="matrix(-0.0035257 0.999994 -0.99998 -0.00638719 139.008 0.685669)" stroke="#A964E3" stroke-width="3"/>
<ellipse cx="7.62425" cy="7.7826" rx="7.62425" ry="7.7826" transform="matrix(-0.00647531 0.999979 -0.999963 -0.00855451 148.646 0.132812)" fill="#A964E3"/>
<ellipse cx="7.62425" cy="7.7826" rx="7.62425" ry="7.7826" transform="matrix(-0.00647531 0.999979 -0.999963 -0.00855451 146.663 496.133)" fill="white"/>
<ellipse cx="7.62425" cy="7.7826" rx="7.62425" ry="7.7826" transform="matrix(-0.00647531 0.999979 -0.999963 -0.00855451 147.663 149.133)" fill="#A964E3"/>
<ellipse cx="7.62425" cy="7.7826" rx="7.62425" ry="7.7826" transform="matrix(-0.00647531 0.999979 -0.999963 -0.00855451 147.663 323.133)" fill="white"/>
<path d="M30.0005 9.72724L29.9413 24.9998H28.0919L28.1511 9.72724H30.0005ZM35.1975 18.1093L35.1708 24.9998H33.4109L33.4553 13.5454H35.1556L35.1486 15.3351H35.2978C35.5685 14.7535 35.978 14.2862 36.5262 13.9332C37.0745 13.5752 37.7811 13.3962 38.6462 13.3962C39.4218 13.3962 40.0998 13.5553 40.6802 13.8735C41.2607 14.1867 41.7112 14.664 42.0319 15.3053C42.3526 15.9417 42.511 16.7471 42.5073 17.7215L42.479 24.9998H40.7191L40.7469 17.8408C40.7503 16.941 40.5194 16.24 40.054 15.7378C39.5886 15.2307 38.9483 14.9772 38.133 14.9772C37.5712 14.9772 37.0686 15.099 36.6251 15.3426C36.1867 15.5862 35.8398 15.9417 35.5844 16.409C35.3291 16.8763 35.2001 17.4431 35.1975 18.1093ZM45.695 24.9998L45.7394 13.5454H47.4994L47.455 24.9998H45.695ZM46.6417 11.6363C46.2987 11.6363 46.0033 11.5195 45.7557 11.2858C45.513 11.0522 45.3922 10.7713 45.3935 10.4431C45.3948 10.115 45.5177 9.83413 45.7622 9.60046C46.0117 9.3668 46.3079 9.24997 46.651 9.24997C46.994 9.24997 47.2869 9.3668 47.5296 9.60046C47.7773 9.83413 47.9005 10.115 47.8992 10.4431C47.8979 10.7713 47.7725 11.0522 47.5231 11.2858C47.2786 11.5195 46.9848 11.6363 46.6417 11.6363ZM55.7044 13.5454L55.6986 15.0369H49.7625L49.7683 13.5454H55.7044ZM51.5091 10.8011H53.269L53.2267 21.7186C53.2247 22.2158 53.2954 22.5886 53.4386 22.8372C53.5868 23.0808 53.7751 23.2449 54.0035 23.3294C54.2368 23.409 54.4828 23.4487 54.7413 23.4487C54.9352 23.4487 55.0943 23.4388 55.2187 23.4189C55.3431 23.394 55.4426 23.3742 55.5172 23.3592L55.869 24.9402C55.7495 24.9849 55.5828 25.0297 55.3689 25.0744C55.1549 25.1241 54.8838 25.149 54.5557 25.149C54.0586 25.149 53.5717 25.0421 53.0953 24.8283C52.6238 24.6146 52.2323 24.2889 51.9208 23.8514C51.6143 23.4139 51.4623 22.8621 51.4649 22.1959L51.5091 10.8011ZM58.3074 24.9998L58.3518 13.5454H60.1117L60.0673 24.9998H58.3074ZM59.254 11.6363C58.911 11.6363 58.6156 11.5195 58.368 11.2858C58.1253 11.0522 58.0046 10.7713 58.0058 10.4431C58.0071 10.115 58.13 9.83413 58.3745 9.60046C58.624 9.3668 58.9203 9.24997 59.2633 9.24997C59.6063 9.24997 59.8992 9.3668 60.1419 9.60046C60.3896 9.83413 60.5128 10.115 60.5115 10.4431C60.5102 10.7713 60.3849 11.0522 60.1354 11.2858C59.8909 11.5195 59.5971 11.6363 59.254 11.6363ZM66.6605 25.2683C65.9346 25.2683 65.2764 25.1316 64.6858 24.8582C64.0953 24.5798 63.627 24.1795 63.281 23.6575C62.9351 23.1305 62.7635 22.4942 62.7664 21.7485C62.769 21.0922 62.9003 20.5603 63.1604 20.1526C63.4205 19.7399 63.7673 19.4168 64.2007 19.1831C64.6342 18.9495 65.1121 18.7755 65.6346 18.6611C66.162 18.5418 66.6919 18.4473 67.2241 18.3777C67.9205 18.2883 68.485 18.2211 68.9177 18.1764C69.3554 18.1267 69.6739 18.0446 69.8732 17.9303C70.0775 17.816 70.1802 17.6171 70.1813 17.3337L70.1815 17.2741C70.1843 16.5383 69.9852 15.9665 69.5841 15.5589C69.1879 15.1512 68.5847 14.9474 67.7743 14.9474C66.9341 14.9474 66.2747 15.1313 65.796 15.4992C65.3173 15.8671 64.9802 16.2599 64.7847 16.6775L63.1165 16.0809C63.4175 15.3849 63.8173 14.843 64.316 14.4552C64.8197 14.0624 65.3676 13.789 65.9598 13.6349C66.557 13.4758 67.144 13.3962 67.7207 13.3962C68.0886 13.3962 68.511 13.441 68.9879 13.5305C69.4698 13.615 69.934 13.7915 70.3804 14.0599C70.8318 14.3284 71.2055 14.7336 71.5017 15.2755C71.7979 15.8174 71.9443 16.5432 71.9407 17.453L71.9115 24.9998H70.1515L70.1576 23.4487H70.0681C69.9478 23.6973 69.7479 23.9633 69.4684 24.2467C69.1889 24.53 68.8176 24.7712 68.3544 24.97C67.8913 25.1689 67.3266 25.2683 66.6605 25.2683ZM66.935 23.6874C67.6311 23.6874 68.2182 23.5506 68.6966 23.2772C69.1799 23.0038 69.5442 22.6508 69.7895 22.2183C70.0397 21.7857 70.1658 21.3308 70.1676 20.8536L70.1739 19.2428C70.0989 19.3323 69.9346 19.4143 69.6807 19.4889C69.4319 19.5585 69.1433 19.6206 68.8149 19.6753C68.4916 19.725 68.1757 19.7698 67.8673 19.8095C67.5639 19.8443 67.3177 19.8742 67.1287 19.899C66.6711 19.9587 66.2432 20.0556 65.8449 20.1899C65.4517 20.3191 65.1327 20.5155 64.8881 20.779C64.6484 21.0375 64.5278 21.3905 64.526 21.8379C64.5236 22.4494 64.7481 22.9118 65.1993 23.225C65.6555 23.5332 66.2341 23.6874 66.935 23.6874ZM80.1497 13.5454L80.1439 15.0369H74.2078L74.2136 13.5454H80.1497ZM75.9544 10.8011H77.7143L77.672 21.7186C77.6701 22.2158 77.7407 22.5886 77.8839 22.8372C78.0321 23.0808 78.2204 23.2449 78.4488 23.3294C78.6821 23.409 78.9281 23.4487 79.1866 23.4487C79.3805 23.4487 79.5396 23.4388 79.664 23.4189C79.7884 23.394 79.8879 23.3742 79.9625 23.3592L80.3143 24.9402C80.1948 24.9849 80.0281 25.0297 79.8142 25.0744C79.6002 25.1241 79.3291 25.149 79.001 25.149C78.5039 25.149 78.0171 25.0421 77.5406 24.8283C77.0691 24.6146 76.6777 24.2889 76.3661 23.8514C76.0596 23.4139 75.9076 22.8621 75.9102 22.1959L75.9544 10.8011ZM87.4313 25.2385C86.3276 25.2385 85.3764 24.9949 84.5779 24.5077C83.7844 24.0155 83.173 23.3294 82.7439 22.4494C82.3198 21.5645 82.11 20.5354 82.1145 19.3621C82.1191 18.1888 82.3369 17.1547 82.7679 16.2599C83.2039 15.36 83.8082 14.659 84.5807 14.1569C85.3583 13.6498 86.2641 13.3962 87.2982 13.3962C87.8948 13.3962 88.4835 13.4957 89.0644 13.6945C89.6453 13.8934 90.1736 14.2165 90.6491 14.664C91.1246 15.1065 91.5027 15.6931 91.7832 16.4239C92.0638 17.1547 92.202 18.0546 92.1979 19.1235L92.195 19.8692H83.3654L83.3713 18.3479H90.4111C90.4136 17.7016 90.2866 17.1249 90.03 16.6178C89.7784 16.1107 89.4171 15.7105 88.9459 15.4172C88.4797 15.1239 87.9284 14.9772 87.2921 14.9772C86.5911 14.9772 85.9838 15.1512 85.4704 15.4992C84.962 15.8422 84.57 16.2897 84.2944 16.8415C84.0188 17.3934 83.8798 17.985 83.8774 18.6164L83.8734 19.6306C83.8701 20.4956 84.0164 21.2289 84.3124 21.8305C84.6133 22.4271 85.0317 22.882 85.5674 23.1952C86.1031 23.5034 86.7264 23.6575 87.4374 23.6575C87.8997 23.6575 88.3176 23.5929 88.691 23.4636C89.0693 23.3294 89.3957 23.1305 89.6702 22.8671C89.9447 22.5986 90.1573 22.2655 90.308 21.8678L92.0064 22.345C91.8252 22.9217 91.5224 23.4288 91.0981 23.8663C90.6739 24.2989 90.1506 24.6369 89.5282 24.8805C88.9058 25.1192 88.2068 25.2385 87.4313 25.2385ZM99.1766 25.2385C98.2221 25.2385 97.3803 24.9974 96.6514 24.5151C95.9225 24.0279 95.3534 23.3418 94.9442 22.4569C94.535 21.567 94.3327 20.5155 94.3374 19.3024C94.3421 18.0993 94.5525 17.0553 94.9685 16.1704C95.3846 15.2854 95.9615 14.6018 96.6991 14.1196C97.4368 13.6374 98.2879 13.3962 99.2524 13.3962C99.9981 13.3962 100.587 13.5205 101.018 13.7691C101.455 14.0127 101.787 14.2911 102.014 14.6043C102.247 14.9126 102.427 15.1661 102.556 15.365H102.705L102.727 9.72724H104.487L104.428 24.9998H102.727L102.734 23.2399H102.525C102.395 23.4487 102.21 23.7122 101.97 24.0304C101.731 24.3436 101.389 24.6245 100.945 24.8731C100.502 25.1167 99.9124 25.2385 99.1766 25.2385ZM99.4214 23.6575C100.127 23.6575 100.725 23.4736 101.213 23.1057C101.702 22.7328 102.074 22.2183 102.33 21.562C102.587 20.9008 102.716 20.1377 102.72 19.2726C102.723 18.4175 102.602 17.6693 102.355 17.028C102.109 16.3817 101.743 15.8795 101.258 15.5216C100.772 15.1587 100.171 14.9772 99.4551 14.9772C98.7093 14.9772 98.0871 15.1686 97.5885 15.5514C97.0948 15.9293 96.7224 16.4438 96.4713 17.0951C96.2252 17.7414 96.1006 18.4672 96.0975 19.2726C96.0943 20.088 96.2157 20.8287 96.4617 21.4949C96.7127 22.1561 97.0836 22.6831 97.5742 23.0759C98.0699 23.4636 98.6856 23.6575 99.4214 23.6575Z" fill="black"/>
<path d="M28.9958 166.539L29.055 151.267H34.2155C35.4136 151.267 36.3922 151.483 37.1512 151.915C37.9152 152.343 38.4797 152.922 38.8447 153.653C39.2098 154.384 39.3906 155.199 39.3871 156.099C39.3836 156.999 39.1965 157.817 38.8257 158.552C38.46 159.288 37.8959 159.875 37.1336 160.312C36.3712 160.745 35.396 160.961 34.2077 160.961H30.5089L30.5152 159.32H34.1544C34.9748 159.32 35.634 159.179 36.1323 158.895C36.6306 158.612 36.9925 158.229 37.2181 157.747C37.4487 157.26 37.5651 156.71 37.5675 156.099C37.5699 155.487 37.4576 154.941 37.2308 154.458C37.009 153.976 36.6475 153.598 36.1464 153.325C35.6454 153.046 34.9797 152.907 34.1495 152.907H30.8981L30.8452 166.539H28.9958ZM43.9064 151.267L43.8472 166.539H42.0872L42.1464 151.267H43.9064ZM50.4403 166.808C49.7145 166.808 49.0563 166.671 48.4657 166.397C47.8752 166.119 47.4069 165.719 47.0609 165.197C46.7149 164.67 46.5434 164.033 46.5463 163.288C46.5488 162.632 46.6802 162.1 46.9403 161.692C47.2004 161.279 47.5472 160.956 47.9806 160.722C48.414 160.489 48.892 160.315 49.4144 160.2C49.9419 160.081 50.4717 159.987 51.004 159.917C51.7003 159.828 52.2649 159.76 52.6976 159.716C53.1353 159.666 53.4538 159.584 53.6531 159.47C53.8573 159.355 53.96 159.156 53.9611 158.873L53.9614 158.813C53.9642 158.078 53.7651 157.506 53.364 157.098C52.9678 156.691 52.3646 156.487 51.5542 156.487C50.714 156.487 50.0545 156.671 49.5758 157.039C49.0971 157.406 48.76 157.799 48.5645 158.217L46.8964 157.62C47.1974 156.924 47.5972 156.382 48.0959 155.994C48.5995 155.602 49.1475 155.328 49.7397 155.174C50.3369 155.015 50.9238 154.936 51.5005 154.936C51.8684 154.936 52.2909 154.98 52.7678 155.07C53.2497 155.154 53.7139 155.331 54.1603 155.599C54.6116 155.868 54.9854 156.273 55.2816 156.815C55.5778 157.357 55.7241 158.083 55.7206 158.992L55.6914 166.539H53.9314L53.9374 164.988H53.8479C53.7277 165.237 53.5278 165.503 53.2483 165.786C52.9688 166.069 52.5974 166.31 52.1343 166.509C51.6712 166.708 51.1065 166.808 50.4403 166.808ZM50.7149 165.227C51.4109 165.227 51.9981 165.09 52.4764 164.817C52.9598 164.543 53.324 164.19 53.5693 163.758C53.8196 163.325 53.9456 162.87 53.9475 162.393L53.9537 160.782C53.8788 160.872 53.7144 160.954 53.4606 161.028C53.2117 161.098 52.9232 161.16 52.5948 161.215C52.2715 161.264 51.9556 161.309 51.6472 161.349C51.3438 161.384 51.0976 161.413 50.9086 161.438C50.451 161.498 50.023 161.595 49.6248 161.729C49.2315 161.858 48.9126 162.055 48.668 162.318C48.4283 162.577 48.3076 162.93 48.3059 163.377C48.3035 163.989 48.5279 164.451 48.9791 164.764C49.4353 165.073 50.0139 165.227 50.7149 165.227ZM60.6903 159.649L60.6636 166.539H58.9036L58.948 155.085H60.6483L60.6414 156.874H60.7905C61.0612 156.293 61.4707 155.825 62.019 155.472C62.5672 155.115 63.2739 154.936 64.139 154.936C64.9145 154.936 65.5925 155.095 66.173 155.413C66.7534 155.726 67.204 156.203 67.5247 156.845C67.8453 157.481 68.0038 158.286 68 159.261L67.9718 166.539H66.2119L66.2396 159.38C66.2431 158.48 66.0122 157.779 65.5468 157.277C65.0814 156.77 64.4411 156.517 63.6257 156.517C63.0639 156.517 62.5613 156.638 62.1179 156.882C61.6795 157.126 61.3326 157.481 61.0772 157.948C60.8218 158.416 60.6929 158.982 60.6903 159.649ZM72.9745 159.649L72.9478 166.539H71.1878L71.2322 155.085H72.9325L72.9256 156.874H73.0747C73.3454 156.293 73.7549 155.825 74.3032 155.472C74.8514 155.115 75.5581 154.936 76.4231 154.936C77.1987 154.936 77.8767 155.095 78.4571 155.413C79.0376 155.726 79.4882 156.203 79.8088 156.845C80.1295 157.481 80.288 158.286 80.2842 159.261L80.256 166.539H78.4961L78.5238 159.38C78.5273 158.48 78.2963 157.779 77.831 157.277C77.3656 156.77 76.7252 156.517 75.9099 156.517C75.3481 156.517 74.8455 156.638 74.4021 156.882C73.9636 157.126 73.6167 157.481 73.3614 157.948C73.106 158.416 72.977 158.982 72.9745 159.649ZM88.2736 166.778C87.1699 166.778 86.2188 166.534 85.4203 166.047C84.6267 165.555 84.0154 164.869 83.5863 163.989C83.1622 163.104 82.9524 162.075 82.9569 160.901C82.9615 159.728 83.1792 158.694 83.6103 157.799C84.0463 156.899 84.6506 156.198 85.4231 155.696C86.2006 155.189 87.1065 154.936 88.1405 154.936C88.7371 154.936 89.3259 155.035 89.9068 155.234C90.4877 155.433 91.0159 155.756 91.4915 156.203C91.967 156.646 92.3451 157.232 92.6256 157.963C92.9062 158.694 93.0444 159.594 93.0402 160.663L93.0373 161.409H84.2078L84.2137 159.887H91.2535C91.256 159.241 91.1289 158.664 90.8724 158.157C90.6208 157.65 90.2594 157.25 89.7883 156.956C89.3221 156.663 88.7708 156.517 88.1344 156.517C87.4334 156.517 86.8262 156.691 86.3128 157.039C85.8044 157.382 85.4124 157.829 85.1368 158.381C84.8612 158.933 84.7222 159.524 84.7197 160.156L84.7158 161.17C84.7125 162.035 84.8588 162.768 85.1547 163.37C85.4557 163.966 85.874 164.421 86.4097 164.734C86.9455 165.043 87.5688 165.197 88.2798 165.197C88.7421 165.197 89.16 165.132 89.5333 165.003C89.9117 164.869 90.2381 164.67 90.5126 164.406C90.7871 164.138 90.9996 163.805 91.1503 163.407L92.8488 163.884C92.6675 164.461 92.3648 164.968 91.9405 165.406C91.5163 165.838 90.9929 166.176 90.3705 166.42C89.7482 166.658 89.0492 166.778 88.2736 166.778ZM100.019 166.778C99.0645 166.778 98.2227 166.537 97.4938 166.054C96.7648 165.567 96.1957 164.881 95.7865 163.996C95.3773 163.106 95.1751 162.055 95.1798 160.842C95.1845 159.639 95.3948 158.595 95.8109 157.71C96.227 156.825 96.8038 156.141 97.5415 155.659C98.2792 155.177 99.1303 154.936 100.095 154.936C100.84 154.936 101.429 155.06 101.861 155.308C102.297 155.552 102.629 155.83 102.857 156.144C103.089 156.452 103.27 156.705 103.398 156.904H103.547L103.569 151.267H105.329L105.27 166.539H103.57L103.576 164.779H103.368C103.238 164.988 103.053 165.252 102.813 165.57C102.573 165.883 102.231 166.164 101.788 166.412C101.344 166.656 100.755 166.778 100.019 166.778ZM100.264 165.197C100.97 165.197 101.567 165.013 102.056 164.645C102.544 164.272 102.917 163.758 103.173 163.101C103.429 162.44 103.559 161.677 103.562 160.812C103.565 159.957 103.444 159.209 103.198 158.567C102.952 157.921 102.586 157.419 102.1 157.061C101.614 156.698 101.013 156.517 100.297 156.517C99.5517 156.517 98.9295 156.708 98.4308 157.091C97.9372 157.469 97.5648 157.983 97.3137 158.634C97.0676 159.281 96.943 160.007 96.9399 160.812C96.9367 161.627 97.0581 162.368 97.3041 163.034C97.5551 163.695 97.9259 164.222 98.4166 164.615C98.9123 165.003 99.528 165.197 100.264 165.197Z" fill="black"/>
<path d="M14.1793 491.552H12.3299C12.2226 491.02 12.033 490.553 11.7611 490.15C11.4942 489.748 11.1674 489.409 10.7807 489.136C10.399 488.858 9.97469 488.649 9.5079 488.51C9.04111 488.37 8.55417 488.301 8.04706 488.301C7.12235 488.301 6.28373 488.534 5.53121 489.002C4.78366 489.469 4.18688 490.158 3.74088 491.067C3.29986 491.977 3.07678 493.093 3.07165 494.416C3.06653 495.738 3.28095 496.854 3.71493 497.764C4.15387 498.674 4.74531 499.362 5.48923 499.83C6.23813 500.297 7.07494 500.531 7.99966 500.531C8.50676 500.531 8.99424 500.461 9.46211 500.322C9.92998 500.183 10.3559 499.976 10.7397 499.703C11.1286 499.425 11.458 499.084 11.7281 498.681C12.0031 498.274 12.1963 497.806 12.3077 497.279H14.1571C14.0149 498.06 13.7587 498.758 13.3884 499.375C13.0181 499.991 12.5587 500.516 12.0101 500.948C11.4616 501.376 10.8463 501.702 10.1643 501.925C9.48735 502.149 8.76355 502.261 7.99295 502.261C6.69039 502.261 5.53325 501.943 4.52151 501.306C3.50977 500.67 2.71534 499.765 2.13821 498.592C1.56108 497.419 1.27564 496.027 1.28188 494.416C1.28813 492.805 1.58436 491.413 2.17058 490.24C2.75681 489.066 3.55826 488.162 4.57493 487.525C5.5916 486.889 6.75121 486.571 8.05377 486.571C8.82437 486.571 9.5473 486.683 10.2226 486.906C10.9028 487.13 11.5155 487.458 12.0607 487.891C12.6059 488.318 13.0613 488.84 13.4268 489.457C13.7923 490.068 14.0432 490.767 14.1793 491.552ZM21.541 502.291C20.5069 502.291 19.6006 502.045 18.822 501.552C18.0483 501.06 17.4444 500.372 17.0104 499.487C16.5813 498.602 16.369 497.568 16.3736 496.385C16.3782 495.191 16.5985 494.15 17.0345 493.26C17.4754 492.37 18.0847 491.679 18.8621 491.187C19.6446 490.695 20.5529 490.448 21.5869 490.448C22.621 490.448 23.5249 490.695 24.2986 491.187C25.0772 491.679 25.6811 492.37 26.1101 493.26C26.5442 494.15 26.7589 495.191 26.7543 496.385C26.7497 497.568 26.5269 498.602 26.086 499.487C25.65 500.372 25.0408 501.06 24.2584 501.552C23.4809 502.045 22.5751 502.291 21.541 502.291ZM21.5472 500.71C22.3327 500.71 22.9798 500.508 23.4884 500.106C23.9971 499.703 24.3745 499.174 24.6207 498.517C24.8668 497.861 24.9914 497.15 24.9943 496.385C24.9973 495.619 24.8783 494.905 24.6372 494.244C24.3962 493.583 24.0229 493.049 23.5174 492.641C23.0118 492.233 22.3663 492.029 21.5808 492.029C20.7953 492.029 20.1482 492.233 19.6395 492.641C19.1308 493.049 18.7534 493.583 18.5072 494.244C18.2611 494.905 18.1365 495.619 18.1335 496.385C18.1306 497.15 18.2496 497.861 18.4907 498.517C18.7317 499.174 19.105 499.703 19.6106 500.106C20.1161 500.508 20.7617 500.71 21.5472 500.71ZM29.4188 502.052L29.4632 490.598H31.1635L31.1566 492.387H31.3057C31.5467 491.776 31.9339 491.301 32.4671 490.963C33.0004 490.62 33.6399 490.448 34.3857 490.448C35.1414 490.448 35.7696 490.62 36.2704 490.963C36.7762 491.301 37.1696 491.776 37.4506 492.387H37.5699C37.8655 491.796 38.3074 491.326 38.8954 490.978C39.4834 490.625 40.1875 490.448 41.0078 490.448C42.032 490.448 42.8685 490.769 43.5173 491.41C44.1661 492.047 44.4879 493.039 44.4826 494.386L44.4529 502.052H42.693L42.7227 494.386C42.726 493.541 42.4971 492.937 42.0362 492.574C41.5752 492.211 41.0315 492.029 40.4051 492.029C39.5997 492.029 38.9748 492.273 38.5305 492.76C38.0861 493.243 37.8625 493.854 37.8597 494.595L37.8308 502.052H36.041L36.0714 494.207C36.0739 493.556 35.8647 493.031 35.4436 492.633C35.0226 492.231 34.479 492.029 33.8128 492.029C33.3554 492.029 32.9274 492.151 32.5287 492.395C32.135 492.638 31.8155 492.977 31.5702 493.409C31.3299 493.837 31.2087 494.331 31.2065 494.893L31.1788 502.052H29.4188ZM47.6541 506.348L47.7152 490.598H49.4155L49.4084 492.417H49.6172C49.7473 492.218 49.9272 491.965 50.1571 491.657C50.392 491.343 50.7262 491.065 51.1596 490.821C51.5981 490.573 52.1902 490.448 52.9359 490.448C53.9004 490.448 54.7496 490.69 55.4836 491.172C56.2175 491.654 56.789 492.338 57.1983 493.223C57.6075 494.108 57.8097 495.152 57.8051 496.355C57.8004 497.568 57.59 498.619 57.1739 499.509C56.7578 500.394 56.1834 501.08 55.4507 501.567C54.718 502.05 53.8744 502.291 52.9199 502.291C52.1841 502.291 51.5954 502.169 51.1539 501.925C50.7124 501.677 50.3729 501.396 50.1355 501.083C49.8981 500.764 49.7151 500.501 49.5867 500.292H49.4375L49.4141 506.348H47.6541ZM49.4231 496.325C49.4197 497.19 49.5436 497.953 49.7945 498.614C50.0456 499.271 50.4139 499.785 50.8997 500.158C51.3855 500.526 51.9814 500.71 52.6873 500.71C53.4231 500.71 54.0379 500.516 54.5316 500.128C55.0303 499.735 55.4052 499.208 55.6563 498.547C55.9124 497.881 56.0421 497.14 56.0453 496.325C56.0484 495.519 55.9269 494.794 55.6808 494.147C55.4397 493.496 55.0714 492.981 54.5757 492.604C54.085 492.221 53.4667 492.029 52.721 492.029C52.0051 492.029 51.4028 492.211 50.9142 492.574C50.4256 492.932 50.0558 493.434 49.8047 494.08C49.5536 494.722 49.4264 495.47 49.4231 496.325ZM62.2868 486.779L62.2276 502.052H60.4677L60.5269 486.779H62.2868ZM70.2527 502.291C69.149 502.291 68.1979 502.047 67.3993 501.56C66.6058 501.068 65.9945 500.382 65.5653 499.502C65.1412 498.617 64.9314 497.588 64.936 496.414C64.9405 495.241 65.1583 494.207 65.5893 493.312C66.0254 492.412 66.6296 491.711 67.4022 491.209C68.1797 490.702 69.0855 490.448 70.1196 490.448C70.7162 490.448 71.305 490.548 71.8859 490.747C72.4668 490.946 72.995 491.269 73.4705 491.716C73.9461 492.159 74.3241 492.745 74.6047 493.476C74.8852 494.207 75.0234 495.107 75.0193 496.176L75.0164 496.921H66.1869L66.1928 495.4H73.2325C73.235 494.754 73.108 494.177 72.8514 493.67C72.5999 493.163 72.2385 492.763 71.7673 492.469C71.3011 492.176 70.7499 492.029 70.1135 492.029C69.4125 492.029 68.8053 492.203 68.2919 492.551C67.7834 492.894 67.3914 493.342 67.1158 493.894C66.8403 494.446 66.7013 495.037 66.6988 495.669L66.6949 496.683C66.6915 497.548 66.8378 498.281 67.1338 498.883C67.4348 499.479 67.8531 499.934 68.3888 500.247C68.9245 500.556 69.5479 500.71 70.2588 500.71C70.7212 500.71 71.139 500.645 71.5124 500.516C71.8908 500.382 72.2172 500.183 72.4916 499.919C72.7661 499.651 72.9787 499.318 73.1294 498.92L74.8278 499.397C74.6466 499.974 74.3439 500.481 73.9196 500.919C73.4953 501.351 72.972 501.689 72.3496 501.933C71.7272 502.171 71.0283 502.291 70.2527 502.291ZM82.6996 490.598L82.6939 492.089H76.7578L76.7636 490.598H82.6996ZM78.5043 487.853H80.2643L80.2219 498.771C80.22 499.268 80.2907 499.641 80.4339 499.889C80.5821 500.133 80.7704 500.297 80.9987 500.382C81.2321 500.461 81.478 500.501 81.7365 500.501C81.9304 500.501 82.0896 500.491 82.2139 500.471C82.3383 500.446 82.4378 500.426 82.5125 500.411L82.8643 501.992C82.7448 502.037 82.5781 502.082 82.3641 502.127C82.1501 502.176 81.8791 502.201 81.551 502.201C81.0538 502.201 80.567 502.094 80.0906 501.881C79.6191 501.667 79.2276 501.341 78.9161 500.904C78.6095 500.466 78.4576 499.914 78.4601 499.248L78.5043 487.853ZM89.9812 502.291C88.8775 502.291 87.9264 502.047 87.1279 501.56C86.3343 501.068 85.723 500.382 85.2939 499.502C84.8697 498.617 84.6599 497.588 84.6645 496.414C84.669 495.241 84.8868 494.207 85.3179 493.312C85.7539 492.412 86.3582 491.711 87.1307 491.209C87.9082 490.702 88.814 490.448 89.8481 490.448C90.4447 490.448 91.0335 490.548 91.6144 490.747C92.1953 490.946 92.7235 491.269 93.199 491.716C93.6746 492.159 94.0527 492.745 94.3332 493.476C94.6137 494.207 94.7519 495.107 94.7478 496.176L94.7449 496.921H85.9154L85.9213 495.4H92.961C92.9635 494.754 92.8365 494.177 92.58 493.67C92.3284 493.163 91.967 492.763 91.4958 492.469C91.0296 492.176 90.4784 492.029 89.842 492.029C89.141 492.029 88.5338 492.203 88.0204 492.551C87.5119 492.894 87.1199 493.342 86.8444 493.894C86.5688 494.446 86.4298 495.037 86.4273 495.669L86.4234 496.683C86.42 497.548 86.5663 498.281 86.8623 498.883C87.1633 499.479 87.5816 499.934 88.1173 500.247C88.6531 500.556 89.2764 500.71 89.9873 500.71C90.4497 500.71 90.8676 500.645 91.2409 500.516C91.6193 500.382 91.9457 500.183 92.2202 499.919C92.4946 499.651 92.7072 499.318 92.8579 498.92L94.5563 499.397C94.3751 499.974 94.0724 500.481 93.6481 500.919C93.2238 501.351 92.7005 501.689 92.0781 501.933C91.4557 502.171 90.7568 502.291 89.9812 502.291ZM101.727 502.291C100.772 502.291 99.9303 502.05 99.2013 501.567C98.4724 501.08 97.9033 500.394 97.4941 499.509C97.0849 498.619 96.8827 497.568 96.8874 496.355C96.892 495.152 97.1024 494.108 97.5185 493.223C97.9346 492.338 98.5114 491.654 99.2491 491.172C99.9868 490.69 100.838 490.448 101.802 490.448C102.548 490.448 103.137 490.573 103.568 490.821C104.005 491.065 104.337 491.343 104.564 491.657C104.797 491.965 104.977 492.218 105.106 492.417H105.255L105.277 486.779H107.037L106.978 502.052H105.277L105.284 500.292H105.075C104.945 500.501 104.76 500.764 104.52 501.083C104.28 501.396 103.939 501.677 103.495 501.925C103.052 502.169 102.462 502.291 101.727 502.291ZM101.971 500.71C102.677 500.71 103.275 500.526 103.763 500.158C104.252 499.785 104.624 499.271 104.88 498.614C105.137 497.953 105.266 497.19 105.27 496.325C105.273 495.47 105.152 494.722 104.905 494.08C104.659 493.434 104.293 492.932 103.808 492.574C103.322 492.211 102.721 492.029 102.005 492.029C101.259 492.029 100.637 492.221 100.138 492.604C99.6448 492.981 99.2724 493.496 99.0213 494.147C98.7752 494.794 98.6506 495.519 98.6474 496.325C98.6443 497.14 98.7657 497.881 99.0117 498.547C99.2627 499.208 99.6335 499.735 100.124 500.128C100.62 500.516 101.236 500.71 101.971 500.71Z" fill="black"/>
<path d="M10.7544 337.75L10.8136 322.478H20.0309L20.0246 324.118H12.6567L12.6367 329.279H19.5273L19.5209 330.919H12.6303L12.6102 336.11H20.0974L20.091 337.75H10.7544ZM24.4234 326.296L27.1496 330.979L29.9121 326.296H31.9405L28.2194 332.023L31.8961 337.75H29.8677L27.1406 333.306L24.379 337.75H22.3506L26.012 332.023L22.395 326.296H24.4234ZM38.7373 337.989C37.6336 337.989 36.6825 337.745 35.884 337.258C35.0904 336.766 34.4791 336.08 34.05 335.2C33.6258 334.315 33.416 333.286 33.4206 332.112C33.4251 330.939 33.6429 329.905 34.074 329.01C34.51 328.11 35.1143 327.409 35.8868 326.907C36.6643 326.4 37.5701 326.147 38.6042 326.147C39.2008 326.147 39.7896 326.246 40.3705 326.445C40.9514 326.644 41.4796 326.967 41.9551 327.414C42.4307 327.857 42.8088 328.443 43.0893 329.174C43.3698 329.905 43.5081 330.805 43.5039 331.874L43.501 332.62H34.6715L34.6774 331.098H41.7171C41.7196 330.452 41.5926 329.875 41.3361 329.368C41.0845 328.861 40.7231 328.461 40.2519 328.168C39.7857 327.874 39.2345 327.728 38.5981 327.728C37.8971 327.728 37.2899 327.902 36.7765 328.25C36.268 328.593 35.876 329.04 35.6005 329.592C35.3249 330.144 35.1859 330.735 35.1834 331.367L35.1795 332.381C35.1761 333.246 35.3225 333.979 35.6184 334.581C35.9194 335.177 36.3377 335.632 36.8734 335.946C37.4092 336.254 38.0325 336.408 38.7434 336.408C39.2058 336.408 39.6237 336.343 39.997 336.214C40.3754 336.08 40.7018 335.881 40.9763 335.617C41.2507 335.349 41.4633 335.016 41.614 334.618L43.3124 335.095C43.1312 335.672 42.8285 336.179 42.4042 336.617C41.9799 337.049 41.4566 337.387 40.8342 337.631C40.2118 337.87 39.5129 337.989 38.7373 337.989ZM50.8108 337.989C49.737 337.989 48.8132 337.735 48.0396 337.228C47.266 336.721 46.6721 336.023 46.258 335.133C45.8438 334.243 45.6389 333.226 45.6434 332.083C45.6479 330.919 45.8656 329.893 46.2966 329.003C46.7326 328.108 47.3369 327.409 48.1095 326.907C48.887 326.4 49.7928 326.147 50.8269 326.147C51.6323 326.147 52.3576 326.296 53.0027 326.594C53.6479 326.892 54.1757 327.31 54.5863 327.847C54.9968 328.384 55.2504 329.01 55.3471 329.726H53.5872C53.455 329.204 53.1585 328.742 52.6977 328.339C52.2418 327.931 51.6262 327.728 50.8506 327.728C50.1645 327.728 49.5623 327.907 49.0438 328.264C48.5304 328.617 48.1282 329.117 47.8374 329.763C47.5515 330.405 47.4069 331.158 47.4035 332.023C47.4001 332.908 47.5363 333.679 47.8122 334.335C48.093 334.991 48.4888 335.501 48.9995 335.864C49.5151 336.226 50.1209 336.408 50.8169 336.408C51.2743 336.408 51.6898 336.328 52.0633 336.169C52.4367 336.01 52.7533 335.781 53.013 335.483C53.2727 335.185 53.458 334.827 53.569 334.409H55.329C55.2269 335.085 54.9784 335.694 54.5836 336.236C54.1937 336.773 53.6775 337.201 53.0349 337.519C52.3974 337.832 51.656 337.989 50.8108 337.989ZM65.1257 333.067L65.152 326.296H66.9119L66.8675 337.75H65.1076L65.1151 335.811H64.9957C64.725 336.393 64.3055 336.888 63.7372 337.295C63.1688 337.698 62.4521 337.899 61.5871 337.899C60.8712 337.899 60.2354 337.743 59.6798 337.43C59.1242 337.111 58.6886 336.634 58.3729 335.998C58.0572 335.356 57.9012 334.549 57.905 333.574L57.9332 326.296H59.6931L59.6654 333.455C59.6622 334.29 59.8932 334.956 60.3586 335.453C60.829 335.951 61.4296 336.199 62.1604 336.199C62.5979 336.199 63.0433 336.087 63.4966 335.864C63.9549 335.64 64.339 335.297 64.649 334.834C64.964 334.372 65.1229 333.783 65.1257 333.067ZM75.1169 326.296L75.1111 327.787H69.175L69.1808 326.296H75.1169ZM70.9216 323.551H72.6815L72.6392 334.469C72.6373 334.966 72.7079 335.339 72.8511 335.588C72.9993 335.831 73.1876 335.995 73.416 336.08C73.6493 336.159 73.8953 336.199 74.1538 336.199C74.3477 336.199 74.5068 336.189 74.6312 336.169C74.7556 336.144 74.8551 336.125 74.9297 336.11L75.2815 337.691C75.162 337.735 74.9953 337.78 74.7814 337.825C74.5674 337.875 74.2963 337.899 73.9682 337.899C73.4711 337.899 72.9843 337.792 72.5078 337.579C72.0363 337.365 71.6448 337.039 71.3333 336.602C71.0268 336.164 70.8748 335.612 70.8774 334.946L70.9216 323.551ZM77.7199 337.75L77.7643 326.296H79.5242L79.4798 337.75H77.7199ZM78.6665 324.387C78.3235 324.387 78.0281 324.27 77.7805 324.036C77.5378 323.803 77.4171 323.522 77.4183 323.194C77.4196 322.865 77.5425 322.584 77.787 322.351C78.0365 322.117 78.3328 322 78.6758 322C79.0188 322 79.3117 322.117 79.5544 322.351C79.8021 322.584 79.9253 322.865 79.924 323.194C79.9227 323.522 79.7974 323.803 79.5479 324.036C79.3034 324.27 79.0096 324.387 78.6665 324.387ZM84.4899 330.86L84.4632 337.75H82.7033L82.7477 326.296H84.4479L84.441 328.086H84.5901C84.8609 327.504 85.2704 327.037 85.8186 326.684C86.3669 326.326 87.0735 326.147 87.9386 326.147C88.7141 326.147 89.3921 326.306 89.9726 326.624C90.5531 326.937 91.0036 327.414 91.3243 328.056C91.645 328.692 91.8034 329.497 91.7996 330.472L91.7714 337.75H90.0115L90.0392 330.591C90.0427 329.691 89.8118 328.99 89.3464 328.488C88.881 327.981 88.2407 327.728 87.4253 327.728C86.8636 327.728 86.361 327.849 85.9175 328.093C85.4791 328.337 85.1322 328.692 84.8768 329.159C84.6215 329.627 84.4925 330.193 84.4899 330.86ZM99.5934 342.284C98.7433 342.284 98.0129 342.175 97.4022 341.956C96.7916 341.742 96.2831 341.459 95.8768 341.106C95.4754 340.758 95.1562 340.385 94.9191 339.987L96.3249 339.003C96.4832 339.212 96.6836 339.45 96.9262 339.719C97.1687 339.992 97.5009 340.229 97.9227 340.427C98.3495 340.631 98.9084 340.733 99.5995 340.733C100.524 340.733 101.288 340.509 101.891 340.062C102.495 339.615 102.798 338.914 102.802 337.959L102.811 335.632H102.662C102.532 335.841 102.347 336.1 102.107 336.408C101.872 336.711 101.533 336.982 101.09 337.221C100.651 337.454 100.059 337.571 99.3134 337.571C98.3887 337.571 97.5593 337.352 96.8252 336.915C96.0961 336.477 95.5193 335.841 95.095 335.006C94.6757 334.171 94.4683 333.157 94.4729 331.963C94.4775 330.79 94.6878 329.768 95.1038 328.898C95.5198 328.023 96.0967 327.347 96.8343 326.87C97.572 326.388 98.423 326.147 99.3875 326.147C100.133 326.147 100.724 326.271 101.161 326.519C101.602 326.763 101.939 327.041 102.172 327.355C102.409 327.663 102.592 327.916 102.721 328.115H102.9L102.907 326.296H104.607L104.561 338.078C104.558 339.063 104.331 339.863 103.881 340.48C103.436 341.101 102.838 341.556 102.086 341.844C101.339 342.138 100.508 342.284 99.5934 342.284ZM99.5582 335.99C100.264 335.99 100.861 335.829 101.35 335.506C101.838 335.182 102.21 334.718 102.466 334.111C102.722 333.505 102.852 332.779 102.855 331.933C102.858 331.108 102.737 330.38 102.491 329.749C102.245 329.117 101.879 328.622 101.393 328.264C100.907 327.907 100.306 327.728 99.5902 327.728C98.8445 327.728 98.2223 327.916 97.7237 328.294C97.23 328.672 96.8577 329.179 96.6066 329.816C96.3605 330.452 96.236 331.158 96.233 331.933C96.2299 332.729 96.3515 333.432 96.5977 334.044C96.8489 334.65 97.2199 335.128 97.7107 335.476C98.2066 335.819 98.8224 335.99 99.5582 335.99Z" fill="black"/>
</svg>
