<svg width="131" height="141" viewBox="0 0 131 141" fill="none" xmlns="http://www.w3.org/2000/svg">
<path d="M45.4354 57.701C43.4122 63.0288 41.3312 58.7466 41.6635 36.4283C41.8153 25.9649 42.509 4.59224 53.3838 9.2973C63.8251 13.8178 50.0599 45.4309 50.0599 45.4309L45.4354 57.701ZM60.3712 60.8684C60.3712 60.8684 83.0386 35.7364 74.541 27.8485C65.6894 19.6454 58.5141 39.6188 55.1686 49.4594C48.0439 70.4554 48.7087 75.2219 52.2783 70.8936L60.3712 60.8684ZM65.1547 83.425C65.1547 83.425 85.9072 67.7031 80.4806 60.361C74.83 52.7268 66.6215 66.8881 62.7268 73.8996C54.4243 88.8528 54.2798 92.6045 57.5748 89.8368L65.1547 83.425ZM70.7691 105.912C70.7691 105.912 91.5217 90.1905 86.0951 82.8484C80.4517 75.2066 72.2432 89.3755 68.3485 96.3793C60.0388 111.332 59.8943 115.084 63.1965 112.317L70.7691 105.912ZM34.5244 60.707C34.5244 60.707 5.48391 44.6237 0.76545 55.5176C-4.15533 66.8651 15.8819 68.5872 25.6945 69.2253C46.6494 70.5938 50.7536 68.5795 45.8473 66.1501L34.5244 60.707ZM38.6142 78.3894C38.6142 78.3894 7.15307 68.764 4.559 80.4421C1.85655 92.6122 21.7998 90.0598 31.5546 88.6144C52.3361 85.5392 55.9923 82.687 50.7392 81.3723L38.6142 78.3894ZM45.8401 97.6863C45.8401 97.6863 19.0178 90.3289 17.0813 100.269C15.0653 110.61 31.887 107.957 40.0883 106.497C57.5965 103.383 60.6241 100.885 56.1513 99.9004L45.8401 97.6863ZM50.0383 113.624C50.0383 113.624 24.1048 103.275 21.1856 112.939C18.1435 123.003 35.1386 122.265 43.4411 121.734C61.1588 120.612 64.396 118.475 60.0605 116.991L50.0383 113.624ZM32.6963 32.8995C32.6963 32.8995 20.8604 -6.24785 7.40595 0.863553C-6.58322 8.2671 9.5737 25.9188 17.6594 34.3679C34.9074 52.4039 40.2473 53.6648 37.9784 47.3683L32.6963 32.8995Z" fill="#DC96EA"/>
<path opacity="0.65" d="M45.4354 57.701C43.4122 63.0288 41.3312 58.7466 41.6635 36.4283C41.8153 25.9649 42.509 4.59224 53.3838 9.2973C63.8251 13.8178 50.0599 45.4309 50.0599 45.4309L45.4354 57.701ZM60.3712 60.8684C60.3712 60.8684 83.0386 35.7364 74.541 27.8485C65.6894 19.6454 58.5141 39.6188 55.1686 49.4594C48.0439 70.4554 48.7087 75.2219 52.2783 70.8936L60.3712 60.8684ZM65.1547 83.425C65.1547 83.425 85.9072 67.7031 80.4806 60.361C74.83 52.7268 66.6215 66.8881 62.7268 73.8996C54.4243 88.8528 54.2798 92.6045 57.5748 89.8368L65.1547 83.425ZM70.7691 105.912C70.7691 105.912 91.5217 90.1905 86.0951 82.8484C80.4517 75.2066 72.2432 89.3755 68.3485 96.3793C60.0388 111.332 59.8943 115.084 63.1965 112.317L70.7691 105.912ZM34.5244 60.707C34.5244 60.707 5.48391 44.6237 0.76545 55.5176C-4.15533 66.8651 15.8819 68.5872 25.6945 69.2253C46.6494 70.5938 50.7536 68.5795 45.8473 66.1501L34.5244 60.707ZM38.6142 78.3894C38.6142 78.3894 7.15307 68.764 4.559 80.4421C1.85655 92.6122 21.7998 90.0598 31.5546 88.6144C52.3361 85.5392 55.9923 82.687 50.7392 81.3723L38.6142 78.3894ZM45.8401 97.6863C45.8401 97.6863 19.0178 90.3289 17.0813 100.269C15.0653 110.61 31.887 107.957 40.0883 106.497C57.5965 103.383 60.6241 100.885 56.1513 99.9004L45.8401 97.6863ZM50.0383 113.624C50.0383 113.624 24.1048 103.275 21.1856 112.939C18.1435 123.003 35.1386 122.265 43.4411 121.734C61.1588 120.612 64.396 118.475 60.0605 116.991L50.0383 113.624ZM32.6963 32.8995C32.6963 32.8995 20.8604 -6.24785 7.40595 0.863553C-6.58322 8.2671 9.5737 25.9188 17.6594 34.3679C34.9074 52.4039 40.2473 53.6648 37.9784 47.3683L32.6963 32.8995Z" fill="white"/>
<path d="M63.5352 140.977C63.4219 140.975 63.3134 140.928 63.2313 140.845C63.1492 140.761 63.0996 140.647 63.0924 140.526C62.014 120.201 56.6647 95.6603 48.4515 73.1967C41.5238 54.2848 12.399 16.1631 12.099 15.7812C12.025 15.6826 11.9903 15.5568 12.0023 15.431C12.0144 15.3052 12.0722 15.1896 12.1633 15.1091C12.2086 15.0689 12.2609 15.0388 12.3172 15.0205C12.3734 15.0022 12.4325 14.9961 12.4911 15.0025C12.5496 15.0089 12.6063 15.0277 12.6579 15.0578C12.7096 15.0879 12.7551 15.1287 12.7918 15.1778C13.0846 15.5597 42.3094 53.8036 49.2871 72.8453C57.5717 95.4312 62.9067 120.049 63.9995 140.496C64.0053 140.622 63.9644 140.746 63.8855 140.84C63.8066 140.935 63.6962 140.992 63.5781 141L63.5352 140.977Z" fill="#CCCCCC"/>
<path d="M49.4228 72.9997C49.3566 72.9964 49.2918 72.9781 49.2321 72.9458C49.182 72.9165 49.1375 72.8763 49.1011 72.8276C49.0647 72.7788 49.0372 72.7224 49.0201 72.6617C49.0031 72.6009 48.9967 72.5369 49.0016 72.4733C49.0064 72.4098 49.0223 72.3479 49.0482 72.2913L63.1713 41.3089C63.1932 41.2454 63.2267 41.1878 63.2696 41.1399C63.3125 41.092 63.3639 41.0548 63.4203 41.0309C63.4768 41.0069 63.5371 40.9967 63.5973 41.0009C63.6575 41.0051 63.7162 41.0236 63.7697 41.0551C63.8231 41.0867 63.8701 41.1307 63.9075 41.1842C63.9449 41.2376 63.9719 41.2994 63.9868 41.3655C64.0016 41.4316 64.004 41.5005 63.9937 41.5677C63.9835 41.6349 63.9608 41.6989 63.9271 41.7555L49.8041 72.7764C49.763 72.8476 49.7063 72.9057 49.6394 72.9448C49.5726 72.9839 49.498 73.0028 49.4228 72.9997Z" fill="#CCCCCC"/>
<path d="M46.5679 68H46.4846L16.3881 60.9962C16.3278 60.9884 16.2696 60.9664 16.2172 60.9315C16.1648 60.8966 16.1193 60.8497 16.0836 60.7936C16.048 60.7375 16.0229 60.6736 16.01 60.6059C15.9971 60.5382 15.9967 60.4681 16.0088 60.4002C16.0208 60.3323 16.0452 60.2679 16.0802 60.2113C16.1152 60.1547 16.1601 60.1071 16.2121 60.0714C16.2641 60.0357 16.322 60.0127 16.3822 60.004C16.4424 59.9952 16.5035 60.0009 16.5616 60.0206L46.6581 67.0244C46.7698 67.0529 46.8673 67.1304 46.9296 67.2401C46.9919 67.3499 47.014 67.4831 46.9913 67.6113C46.9705 67.7218 46.9171 67.8208 46.84 67.8916C46.7629 67.9624 46.6668 68.0007 46.5679 68Z" fill="#CCCCCC"/>
<path d="M55.4429 91C55.3584 90.9945 55.2769 90.965 55.2068 90.9148C55.1368 90.8646 55.0809 90.7954 55.0448 90.7145C55.0088 90.6336 54.9941 90.544 55.0021 90.455C55.0102 90.3661 55.0408 90.281 55.0907 90.2088L74.1803 67.1691C74.2206 67.1202 74.2697 67.0803 74.3247 67.0515C74.3797 67.0226 74.4395 67.0056 74.5007 67.0011C74.562 66.9967 74.6234 67.0051 74.6816 67.0258C74.7398 67.0464 74.7936 67.079 74.8398 67.1216C74.8861 67.1642 74.924 67.216 74.9513 67.2741C74.9785 67.3321 74.9947 67.3953 74.9989 67.4599C75.0031 67.5246 74.9952 67.5894 74.9756 67.6509C74.956 67.7123 74.9252 67.769 74.8848 67.8179L55.7802 90.8022C55.74 90.858 55.6893 90.9044 55.6312 90.9385C55.5732 90.9725 55.5091 90.9935 55.4429 91Z" fill="#CCCCCC"/>
<path d="M52.555 82.9999L29.4379 82.817C29.3211 82.8152 29.2098 82.7711 29.1278 82.6941C29.0459 82.617 29 82.5133 29 82.4052C29.0036 82.2977 29.0519 82.1956 29.1348 82.1201C29.2176 82.0446 29.3287 82.0016 29.445 82L52.5621 82.183C52.6789 82.1847 52.7903 82.2288 52.8722 82.3059C52.9541 82.3829 53 82.4867 53 82.5947C53 82.6485 52.9885 82.7017 52.966 82.7513C52.9436 82.8009 52.9107 82.8459 52.8692 82.8836C52.8278 82.9213 52.7787 82.951 52.7248 82.971C52.6708 82.991 52.6131 83.0008 52.555 82.9999Z" fill="#CCCCCC"/>
<path d="M38.4782 102C38.354 102 38.2346 101.944 38.1454 101.843C38.0561 101.742 38.004 101.605 38.0001 101.46C37.9979 101.315 38.044 101.173 38.1288 101.066C38.2136 100.959 38.3307 100.894 38.4555 100.885L57.5061 100C57.6317 99.9955 57.7538 100.048 57.8461 100.148C57.9384 100.247 57.9935 100.385 57.9994 100.531C58.0025 100.604 57.9931 100.677 57.9717 100.745C57.9504 100.814 57.9176 100.877 57.8752 100.93C57.8328 100.984 57.7817 101.027 57.7248 101.057C57.668 101.087 57.6065 101.104 57.544 101.106L38.4934 101.991L38.4782 102Z" fill="#CCCCCC"/>
<path d="M61.4244 113C61.3327 113.001 61.2437 112.965 61.1726 112.898C61.0816 112.82 61.0212 112.704 61.0046 112.575C60.988 112.446 61.0166 112.315 61.0841 112.21L70.2301 98.1984C70.2979 98.0938 70.399 98.0244 70.5113 98.0053C70.6235 97.9862 70.7378 98.0191 70.829 98.0967C70.8743 98.1352 70.9124 98.1838 70.9411 98.2395C70.9698 98.2952 70.9885 98.357 70.9961 98.4211C71.0037 98.4853 71.0001 98.5506 70.9854 98.6131C70.9707 98.6756 70.9453 98.7341 70.9107 98.7852L61.7646 112.804C61.7248 112.865 61.6734 112.914 61.6144 112.948C61.5554 112.982 61.4904 113 61.4244 113Z" fill="#CCCCCC"/>
<path d="M61.5467 117.999L41.4121 116.923C41.3553 116.92 41.2996 116.905 41.2482 116.879C41.1968 116.853 41.1506 116.816 41.1124 116.771C41.0742 116.726 41.0446 116.673 41.0254 116.615C41.0062 116.558 40.9977 116.497 41.0005 116.436C41.0076 116.314 41.0591 116.2 41.1438 116.118C41.2286 116.037 41.3397 115.995 41.4533 116.001L61.5947 117.077C61.6506 117.08 61.7054 117.095 61.756 117.121C61.8066 117.146 61.852 117.182 61.8896 117.227C61.9272 117.271 61.9563 117.324 61.9751 117.38C61.994 117.437 62.0022 117.497 61.9995 117.557C61.9968 117.618 61.983 117.678 61.9588 117.733C61.9346 117.788 61.9005 117.838 61.8585 117.879C61.8164 117.92 61.7672 117.952 61.7137 117.973C61.6602 117.993 61.6035 118.002 61.5467 117.999Z" fill="#CCCCCC"/>
<path d="M101.808 87.9135C98.1521 89.3765 99.2698 86.1057 110.569 75.3586C115.862 70.3259 126.866 60.2453 129.852 68.679C132.736 76.7834 110.202 84.4971 110.202 84.4971L101.808 87.9135ZM107.577 97.8716C107.577 97.8716 131.229 98.3465 130.998 89.6906C130.753 80.6824 117.261 86.4198 110.714 89.3536C96.7459 95.6195 94.6908 98.3235 98.5919 98.2009L107.577 97.8716ZM98.6424 111.621C98.6424 111.621 116.67 115.628 117.665 108.971C118.711 102.077 107.613 104.375 102.205 105.593C90.667 108.236 88.7273 109.99 91.727 110.495L98.6424 111.621ZM90.1767 125.808C90.1767 125.808 108.204 129.806 109.199 123.157C110.245 116.263 99.1472 118.561 93.7389 119.772C82.2013 122.414 80.2615 124.169 83.2613 124.674L90.1767 125.808ZM94.9576 83.2255C94.9576 83.2255 88.7345 58.9967 80.997 61.6471C72.9279 64.4277 81.8984 76.5689 86.3909 82.4135C95.9816 94.8995 99.003 96.2017 97.7915 92.2874L94.9576 83.2255ZM88.1287 94.233C88.1287 94.233 77.4924 71.7737 70.3968 76.0327C63.0127 80.4449 74.0744 90.403 79.5548 95.2212C91.2872 105.432 94.5033 106.098 92.5779 102.491L88.1287 94.233ZM82.0354 107.745C82.0354 107.745 72.5529 89.0165 66.6398 92.7929C60.4888 96.7226 70.0651 104.911 74.8172 108.818C84.9631 117.16 87.6889 117.65 85.9871 114.647L82.0354 107.745ZM76.144 117.918C76.144 117.918 68.5868 98.2239 62.3276 101.311C55.8377 104.528 64.527 113.743 68.8609 118.163C78.1126 127.6 80.7807 128.397 79.3818 125.218L76.144 117.918ZM107.873 68.5948C107.873 68.5948 121.573 42.742 111.478 38.6516C100.921 34.3849 100.041 52.1409 99.7962 60.8658C99.2554 79.4185 101.238 83.08 103.272 78.6831L107.873 68.5948Z" fill="#DC96EA"/>
<path opacity="0.65" d="M101.808 87.9135C98.1521 89.3765 99.2698 86.1057 110.569 75.3586C115.862 70.3259 126.866 60.2453 129.852 68.679C132.736 76.7834 110.202 84.4971 110.202 84.4971L101.808 87.9135ZM107.577 97.8716C107.577 97.8716 131.229 98.3465 130.998 89.6906C130.753 80.6824 117.261 86.4198 110.714 89.3536C96.7459 95.6195 94.6908 98.3235 98.5919 98.2009L107.577 97.8716ZM98.6424 111.621C98.6424 111.621 116.67 115.628 117.665 108.971C118.711 102.077 107.613 104.375 102.205 105.593C90.667 108.236 88.7273 109.99 91.727 110.495L98.6424 111.621ZM90.1767 125.808C90.1767 125.808 108.204 129.806 109.199 123.157C110.245 116.263 99.1472 118.561 93.7389 119.772C82.2013 122.414 80.2615 124.169 83.2613 124.674L90.1767 125.808ZM94.9576 83.2255C94.9576 83.2255 88.7345 58.9967 80.997 61.6471C72.9279 64.4277 81.8984 76.5689 86.3909 82.4135C95.9816 94.8995 99.003 96.2017 97.7915 92.2874L94.9576 83.2255ZM88.1287 94.233C88.1287 94.233 77.4924 71.7737 70.3968 76.0327C63.0127 80.4449 74.0744 90.403 79.5548 95.2212C91.2872 105.432 94.5033 106.098 92.5779 102.491L88.1287 94.233ZM82.0354 107.745C82.0354 107.745 72.5529 89.0165 66.6398 92.7929C60.4888 96.7226 70.0651 104.911 74.8172 108.818C84.9631 117.16 87.6889 117.65 85.9871 114.647L82.0354 107.745ZM76.144 117.918C76.144 117.918 68.5868 98.2239 62.3276 101.311C55.8377 104.528 64.527 113.743 68.8609 118.163C78.1126 127.6 80.7807 128.397 79.3818 125.218L76.144 117.918ZM107.873 68.5948C107.873 68.5948 121.573 42.742 111.478 38.6516C100.921 34.3849 100.041 52.1409 99.7962 60.8658C99.2554 79.4185 101.238 83.08 103.272 78.6831L107.873 68.5948Z" fill="#E5E5E5"/>
<path d="M69.44 141C69.3831 141.001 69.3266 140.99 69.2737 140.968C69.2208 140.945 69.1726 140.912 69.1319 140.869C69.0474 140.779 69 140.656 69 140.528C69 140.4 69.0474 140.277 69.1319 140.187C78.9696 129.292 89.4164 112.942 96.3953 97.5208C102.407 84.2477 107.064 48.8015 107.107 48.4179C107.125 48.2915 107.188 48.1775 107.283 48.1002C107.378 48.0228 107.497 47.9882 107.616 48.0036C107.733 48.0226 107.839 48.0904 107.91 48.1924C107.981 48.2944 108.012 48.4223 107.996 48.5483C107.953 48.9089 103.274 84.5009 97.2049 97.9121C90.1831 113.41 79.6718 129.86 69.7767 140.823C69.7367 140.878 69.6856 140.923 69.6273 140.953C69.5689 140.984 69.5049 141 69.44 141Z" fill="#CCCCCC"/>
<path d="M90.415 110C90.3003 109.99 90.1949 109.953 90.1185 109.894C90.0422 109.836 90 109.761 90 109.683C90 109.605 90.0422 109.53 90.1185 109.471C90.1949 109.413 90.3003 109.375 90.415 109.365L111.51 109C111.635 109 111.755 109.032 111.846 109.089C111.937 109.147 111.992 109.226 112 109.31C112.002 109.394 111.955 109.475 111.869 109.536C111.783 109.596 111.665 109.632 111.54 109.635L90.4451 110H90.415Z" fill="#CCCCCC"/>
<path d="M93.5819 105C93.5164 105 93.4517 104.987 93.3916 104.961C93.3316 104.935 93.2775 104.898 93.2328 104.851L81.1366 91.7822C81.049 91.6934 81 91.5745 81 91.4509C81 91.3272 81.049 91.2084 81.1366 91.1195C81.1834 91.0784 81.2381 91.0467 81.2974 91.0264C81.3566 91.006 81.4195 90.9973 81.4822 91.0007C81.5449 91.0042 81.6063 91.0198 81.6629 91.0465C81.7195 91.0733 81.7702 91.1107 81.812 91.1567L93.9082 104.226C93.9587 104.294 93.9897 104.374 93.9978 104.457C94.006 104.541 93.9911 104.625 93.9546 104.702C93.9181 104.778 93.8615 104.843 93.7906 104.89C93.7196 104.937 93.6371 104.965 93.5515 104.97L93.5819 105Z" fill="#CCCCCC"/>
<path d="M86.5607 117C86.5028 117 86.4454 116.988 86.3918 116.964C86.3382 116.94 86.2895 116.904 86.2485 116.86L77.1166 106.823C77.0392 106.729 76.9975 106.607 77.0001 106.48C77.0028 106.354 77.0496 106.233 77.1309 106.144C77.2122 106.055 77.3217 106.003 77.4367 106C77.5516 105.997 77.6631 106.043 77.7481 106.128L86.8729 116.165C86.9338 116.234 86.9752 116.32 86.9918 116.415C87.0084 116.509 86.9996 116.607 86.9664 116.695C86.9332 116.784 86.8771 116.86 86.805 116.914C86.7329 116.969 86.6479 116.998 86.5607 117Z" fill="#CCCCCC"/>
<path d="M82.446 124C82.33 123.994 82.2205 123.949 82.1384 123.874C82.0562 123.798 82.0072 123.698 82.0007 123.592C81.9942 123.486 82.0307 123.381 82.1031 123.298C82.1756 123.215 82.2789 123.159 82.3935 123.141L94.512 122C94.6315 121.997 94.748 122.035 94.8381 122.107C94.9281 122.179 94.9851 122.279 94.9975 122.388C95.0098 122.497 94.9767 122.606 94.9047 122.693C94.8328 122.781 94.7273 122.84 94.6096 122.859L82.4911 124H82.446Z" fill="#CCCCCC"/>
<path d="M79.5766 126.999C79.5122 127.003 79.4478 126.991 79.3886 126.963C79.3294 126.934 79.2769 126.891 79.2354 126.837L70.0955 114.759C70.0254 114.665 69.9917 114.544 70.0017 114.422C70.0117 114.3 70.0647 114.188 70.149 114.109C70.191 114.069 70.2397 114.04 70.2921 114.021C70.3446 114.003 70.3998 113.996 70.4546 114.002C70.5094 114.007 70.5627 114.025 70.6113 114.053C70.6599 114.082 70.7029 114.121 70.7378 114.168L79.9045 126.237C79.9746 126.332 80.0083 126.453 79.9983 126.575C79.9883 126.697 79.9354 126.809 79.851 126.888C79.7747 126.961 79.6772 127 79.5766 126.999Z" fill="#CCCCCC"/>
</svg>
