<svg width="56" height="84" viewBox="0 0 56 84" fill="none" xmlns="http://www.w3.org/2000/svg">
<g opacity="0.45">
<path d="M10.3966 20.7783C10.3966 20.7783 9.10121 23.6589 6.34997 24.0487C3.59874 24.4385 -1.25051 20.1242 1.82179 17.8977C4.89409 15.6711 9.1012 19.2058 10.3966 20.7783Z" fill="#D590E4"/>
<path d="M5.98454 24.2995C4.18544 24.2995 1.97671 22.7808 1.06332 21.2621C0.232969 19.8822 0.443325 18.5965 1.61689 17.7318C2.00274 17.4395 2.46442 17.2206 2.96819 17.0912C3.47196 16.9617 4.0051 16.925 4.52865 16.9837C6.97542 17.2346 9.51077 19.3178 10.6179 20.6528C10.6423 20.6821 10.658 20.7155 10.6638 20.7505C10.6695 20.7854 10.6652 20.821 10.6511 20.8544C10.5958 20.9754 9.26719 23.8605 6.39418 24.2726C6.25871 24.2903 6.12174 24.2992 5.98454 24.2995ZM4.05812 17.4093C3.29635 17.4109 2.5632 17.6444 2.00439 18.0634C0.642609 19.0534 1.14082 20.3661 1.56153 21.065C2.54135 22.6957 4.84419 24.0352 6.30007 23.8291C8.57524 23.5066 9.82076 21.3114 10.0809 20.8051C9.0347 19.5776 6.67096 17.6691 4.48437 17.4272C4.34282 17.4147 4.20051 17.4087 4.05812 17.4093Z" fill="#263238"/>
<path d="M14.5981 6.63934C14.5981 6.63934 10.557 14.6272 12.1734 18.5517C13.7899 22.4761 23.7984 25.3612 26.7323 20.254C29.6662 15.1468 23.1728 7.95197 20.7482 6.36605C18.3236 4.78013 15.4063 5.33118 14.5981 6.63934Z" fill="#D590E4"/>
<path d="M21.1302 23.2198H20.6154C16.7847 23.0496 12.8655 20.9798 11.9133 18.6368C10.2526 14.6765 14.1774 6.89917 14.3435 6.56765C14.5726 6.23575 14.8902 5.94933 15.2732 5.72924C15.6562 5.50915 16.0951 5.36092 16.5578 5.29534C17.3234 5.17843 18.1116 5.20185 18.8646 5.36389C19.6175 5.52592 20.3161 5.82244 20.9088 6.23165C23.3943 7.83997 29.9486 15.1558 26.9704 20.375C25.9186 22.2118 23.8538 23.2198 21.1302 23.2198ZM14.8528 6.73341C14.7089 7.02013 10.8892 14.7302 12.4337 18.48C13.3249 20.6438 17.0892 22.6016 20.6486 22.7628C22.2263 22.83 25.0772 22.5881 26.4777 20.16C29.3286 15.1648 22.9792 8.11325 20.5711 6.55421C20.0444 6.18783 19.4229 5.92159 18.7523 5.77507C18.0818 5.62854 17.3792 5.60545 16.6962 5.70749C16.3143 5.75768 15.951 5.87571 15.6323 6.0531C15.3135 6.23049 15.0473 6.46283 14.8528 6.73341Z" fill="#263238"/>
<path d="M38.2132 10.0441C38.2132 10.0441 31.2604 15.1513 30.4633 20.254C29.6662 25.3568 34.3383 27.1936 39.1986 26.526C44.0589 25.8585 46.4725 15.9219 45.0166 11.3389C43.5607 6.75581 38.2132 10.0441 38.2132 10.0441Z" fill="#D590E4"/>
<path d="M37.3163 26.889C35.3528 26.9556 33.4338 26.4031 31.9633 25.3479C30.4521 24.1696 29.8321 22.3956 30.1753 20.2272C30.9891 15.0976 37.7426 10.089 38.0305 9.87844C38.1412 9.81124 40.7595 8.22532 42.9406 8.84356C44.0477 9.15716 44.8393 9.99045 45.26 11.312C46.3118 14.6272 45.3708 21.168 42.5752 24.649C41.5788 25.89 40.444 26.6068 39.2151 26.7725C38.5872 26.8535 37.9521 26.8925 37.3163 26.889ZM38.3903 10.2189C38.0969 10.434 31.4983 15.4068 30.7234 20.281C30.4023 22.306 30.9669 23.9456 32.3508 25.0253C33.8842 26.2215 36.3587 26.6919 39.1376 26.3156C40.2115 26.1722 41.219 25.5226 42.1324 24.3937C44.8504 21.0113 45.7638 14.6362 44.7397 11.4017C44.3688 10.2324 43.7045 9.50661 42.7745 9.24229C40.9145 8.73605 38.5619 10.1159 38.3903 10.2189Z" fill="#263238"/>
<path d="M39.5086 38.3041C39.5086 38.3041 31.7587 38.5684 31.421 41.579C31.0833 44.5895 34.8199 45.2436 38.5399 42.6228C42.2599 40.002 42.7415 38.4474 39.5086 38.3041Z" fill="#D590E4"/>
<path d="M34.1113 44.4999C33.5991 44.5077 33.0921 44.4155 32.6333 44.2311C31.5261 43.7831 31.0113 42.8378 31.1442 41.57C31.4874 38.4026 39.1709 38.1069 39.4975 38.0935C40.8261 38.1473 41.6177 38.4474 41.8446 38.9895C42.1989 39.8183 41.1693 41.0682 38.6948 42.8065C37.1504 43.9085 35.5007 44.4999 34.1113 44.4999ZM39.5086 38.5415C39.1654 38.5415 31.9911 38.882 31.6977 41.6103C31.5815 42.681 32.0022 43.4695 32.8824 43.8503C34.2386 44.4058 36.3864 43.8727 38.3571 42.5063C41.3077 40.4276 41.4959 39.5226 41.3464 39.1687C41.1582 38.7028 40.2448 38.5729 39.5086 38.5415Z" fill="#263238"/>
<path d="M31.6644 42.5107L31.4319 42.103C31.6866 42.0134 37.6153 39.8227 40.3776 39.415L40.4717 39.863C37.7814 40.2528 31.7253 42.4883 31.6644 42.5107Z" fill="#263238"/>
<path d="M41.2413 58.016C41.2413 58.016 35.534 53.7466 32.6721 55.682C29.8101 57.6173 31.8528 60.2157 36.7685 60.5069C41.6842 60.7981 43.4057 59.9648 41.2413 58.016Z" fill="#D590E4"/>
<path d="M38.5288 60.7892C37.9753 60.7892 37.4217 60.7668 36.7519 60.7309C33.8733 60.5607 31.7698 59.6065 31.2162 58.2401C30.8398 57.2948 31.2937 56.3226 32.5005 55.5117C35.5174 53.4733 41.1915 57.6756 41.4351 57.8548C42.3208 58.6567 42.6142 59.3197 42.3042 59.8305C41.9333 60.4756 40.6878 60.7892 38.5288 60.7892ZM34.5044 55.4132C33.9022 55.3954 33.3123 55.5545 32.8437 55.8612C31.8251 56.5466 31.4266 57.3485 31.7366 58.1012C32.2016 59.2749 34.1833 60.1306 36.7906 60.2829C40.6656 60.5114 41.6177 59.9828 41.817 59.6468C42.0661 59.2391 41.5347 58.6209 41.042 58.1773C40.8372 58.0161 37.2335 55.3997 34.5044 55.3997V55.4132Z" fill="#263238"/>
<path d="M40.5603 59.6646C38.346 58.3923 32.0962 56.4927 32.0353 56.4703L32.2291 56.0537C32.4893 56.1299 38.5896 57.9935 40.8758 59.2972L40.5603 59.6646Z" fill="#263238"/>
<path d="M11.1548 56.7617C11.1548 56.7617 19.021 50.8705 22.9679 53.5361C26.9149 56.2017 24.0751 59.7857 17.3215 60.1844C10.568 60.5831 8.17107 59.4452 11.1548 56.7617Z" fill="#D590E4"/>
<path d="M14.897 60.4935C11.9797 60.4935 10.3024 60.0813 9.79315 59.2391C9.38904 58.5671 9.79315 57.6845 10.9778 56.6093C11.3099 56.3629 19.0654 50.6196 23.1563 53.3837C24.7838 54.4813 25.3705 55.785 24.8945 57.0529C24.1582 58.9031 21.2686 60.1889 17.3493 60.4263C16.436 60.4666 15.6111 60.4935 14.897 60.4935ZM11.3819 56.9095C10.6789 57.5457 9.92047 58.4237 10.2748 59.033C10.5681 59.5169 11.869 60.2785 17.3106 59.9559C20.942 59.7453 23.7098 58.5402 24.3686 56.8961C24.8004 55.8119 24.2413 54.6785 22.802 53.7063C19.1318 51.2378 11.6587 56.6945 11.3542 56.9185L11.3819 56.9095Z" fill="#263238"/>
<path d="M12.035 58.9612L11.714 58.5939C14.8638 56.8019 23.2558 54.2393 23.6157 54.1139L23.8094 54.5305C23.7208 54.5753 15.1239 57.2006 12.035 58.9612Z" fill="#263238"/>
<path d="M20.261 44.6028C20.261 44.6028 19.4528 47.7388 16.541 48.9216C13.6293 50.1043 8.45342 47.6134 11.2047 43.8144C13.9559 40.0153 18.8051 43.0304 20.261 44.6028Z" fill="#D590E4"/>
<path d="M14.897 49.4368C14.2139 49.4327 13.5388 49.318 12.9113 49.0995C12.2839 48.881 11.7168 48.5631 11.2435 48.1645C9.86507 46.9728 9.75436 45.3421 10.9445 43.6845C11.8302 42.4615 13.0038 41.8074 14.4265 41.7402C16.8843 41.6327 19.4363 43.344 20.4604 44.4506C20.4845 44.4756 20.5015 44.5047 20.5101 44.5357C20.5187 44.5666 20.5187 44.5988 20.5102 44.6298C20.477 44.7642 19.6411 47.8912 16.6352 49.1098C16.0945 49.3254 15.4997 49.4373 14.897 49.4368ZM14.659 42.2016H14.4597C13.2308 42.2599 12.2067 42.8378 11.4206 43.9264C10.3633 45.3824 10.4463 46.816 11.6476 47.8554C12.8488 48.8947 14.969 49.2979 16.3972 48.7155C18.8661 47.7165 19.7739 45.1808 19.94 44.6477C18.927 43.5859 16.7016 42.2016 14.6811 42.2016H14.659Z" fill="#263238"/>
<path d="M13.4688 34.7827C13.4688 34.7827 12.0129 32.1664 6.34991 33.8867C0.686917 35.607 -1.57718 38.2054 1.98226 39.1194C5.54171 40.0333 13.4688 34.7827 13.4688 34.7827Z" fill="#D590E4"/>
<path d="M2.91222 39.4329C2.56914 39.4367 2.2274 39.3974 1.89919 39.3165C0.354736 38.9177 0.011524 38.2592 0.0004526 37.7753C-0.0382971 36.4313 2.41401 34.8141 6.25577 33.6582C12.0904 31.9021 13.7068 34.6617 13.7179 34.6931C13.7445 34.7377 13.7513 34.7883 13.7372 34.8364C13.7231 34.8846 13.6889 34.9273 13.6404 34.9574C13.3414 35.168 6.82041 39.4329 2.91222 39.4329ZM9.81521 33.5149C8.66078 33.5397 7.52107 33.7309 6.44952 34.0793C2.35865 35.3069 0.526342 36.8525 0.55402 37.7664C0.55402 38.3757 1.38437 38.7161 2.06526 38.8909C5.15417 39.6838 11.9132 35.4905 13.1366 34.7289C12.8266 34.3705 11.9188 33.5149 9.81521 33.5149Z" fill="#263238"/>
<path d="M3.32184 37.5917L2.96756 37.2467C6.23361 35.0067 12.107 34.4647 12.3782 34.4423L12.4336 34.8903C12.3561 34.8947 6.46057 35.4323 3.32184 37.5917Z" fill="#263238"/>
<path d="M29.644 3.36C29.644 3.36 30.6127 5.19232 32.5557 4.79808C34.4987 4.40384 34.9803 2.05184 38.0526 2.70592C41.1249 3.36 43.7156 6.24064 43.7156 4.94592C43.7156 3.6512 39.8075 0.223999 35.4619 0.223999C31.1164 0.223999 29.8045 1.66656 29.644 3.36Z" fill="#D590E4"/>
<path d="M43.4722 5.50144C43.0958 5.50144 42.6086 5.1968 41.8115 4.71744C40.8095 4.09472 39.4312 3.24352 37.9365 2.92544C36.1928 2.5536 35.3735 3.2256 34.5155 3.93344C34.0076 4.43534 33.3365 4.81239 32.578 5.02208C30.8619 5.36704 29.7105 4.12608 29.3451 3.45408C29.3346 3.41875 29.3346 3.38189 29.3451 3.34656C29.5555 1.10656 31.6092 0 35.4344 0C39.8629 0 43.9649 3.39136 43.9649 4.928C43.9787 5.02848 43.9582 5.13011 43.9055 5.22177C43.8528 5.31343 43.7699 5.39159 43.6659 5.44768C43.6065 5.47592 43.5406 5.4942 43.4722 5.50144ZM37.0397 2.37439C37.4043 2.37914 37.7668 2.41976 38.1192 2.49536C39.6913 2.83136 41.1195 3.71392 42.1602 4.36352C42.5472 4.63032 42.9706 4.86031 43.4224 5.04896C43.4266 5.0132 43.4266 4.9772 43.4224 4.94144C43.4224 3.83936 39.8353 0.461439 35.4455 0.461439C31.9358 0.461439 30.1257 1.40225 29.9098 3.33761C30.0703 3.61537 30.9228 4.91456 32.4673 4.60096C33.1192 4.40644 33.6933 4.07191 34.128 3.63327C34.8808 3.03295 35.678 2.37439 37.0397 2.37439Z" fill="#263238"/>
<path d="M23.7928 41.9283C23.5949 41.2881 23.3547 40.657 23.0731 40.0377C20.3053 34.039 13.7954 34.9619 13.5186 35.0022L13.4134 34.5542C13.4854 34.5542 20.643 33.5104 23.5935 39.872C23.8768 40.5101 24.1152 41.1608 24.3076 41.8208L23.7928 41.9283Z" fill="#263238"/>
<path d="M42.531 28.7213C42.531 28.7213 43.9869 26.1005 49.6499 27.8029C55.3129 29.5053 57.577 32.1261 54.0175 33.04C50.4581 33.954 42.531 28.7213 42.531 28.7213Z" fill="#D590E4"/>
<path d="M53.0932 33.376C49.185 33.376 42.6585 29.0976 42.3595 28.896C42.3122 28.8641 42.2789 28.8206 42.265 28.7721C42.251 28.7236 42.257 28.6727 42.282 28.6272C42.282 28.6003 43.9095 25.8406 49.7497 27.5923C53.5859 28.7481 56.0437 30.3654 55.9994 31.7139C55.9994 32.1977 55.6452 32.8563 54.1007 33.255C53.7741 33.3353 53.4346 33.3761 53.0932 33.376ZM42.891 28.6675C44.0867 29.4336 50.8513 33.6269 53.9623 32.8294C54.6432 32.6547 55.4569 32.3187 55.4735 31.7094C55.4735 30.8134 53.6689 29.2454 49.5836 28.0179C44.9558 26.656 43.2951 28.1568 42.891 28.663V28.6675Z" fill="#263238"/>
<path d="M52.2019 31.5258C49.5669 28.896 43.8984 29.1156 43.8431 29.1156L43.8098 28.6676C44.0534 28.6676 49.8216 28.4301 52.6337 31.2391L52.2019 31.5258Z" fill="#263238"/>
<path d="M37.8257 29.456L37.5987 29.0484C39.1634 28.4921 40.8896 28.3027 42.5808 28.5018L42.4756 28.9498C40.8976 28.774 39.2902 28.949 37.8257 29.456Z" fill="#263238"/>
<path d="M16.9839 24.183C13.6625 21.4547 10.3854 21.0022 10.3411 20.9978C10.2968 20.9933 5.45863 19.9763 3.64292 21.3203L3.27203 20.9888C5.30363 19.479 10.247 20.5139 10.4684 20.5408C10.5847 20.5408 13.9448 20.9888 17.3825 23.847L16.9839 24.183Z" fill="#263238"/>
<path d="M18.2029 8.88484L17.6604 8.9834L17.9648 10.081L18.5073 9.98244L18.2029 8.88484Z" fill="#263238"/>
<path d="M26.0237 67.3972H25.4701C25.4701 67.1732 26.1898 44.7866 25.4701 38.0352C24.7505 31.2839 21.4069 23.3005 21.3737 23.2199L17.9195 10.7431L18.473 10.6445L21.9107 23.072C21.9107 23.1303 25.3041 31.1719 26.0237 37.968C26.7433 44.7642 26.0348 67.1732 26.0237 67.3972Z" fill="#263238"/>
<path d="M40.4962 13.1836L39.8725 14.2631L40.3739 14.4528L40.9976 13.3733L40.4962 13.1836Z" fill="#263238"/>
<path d="M27.7175 67.3702H27.1639C27.1639 67.1641 27.4186 46.7263 28.3763 40.9158C29.3339 35.1052 33.1646 25.8988 33.22 25.8047L39.1653 15.5007L39.669 15.6889L33.7182 25.975C33.7182 26.0422 29.8432 35.1903 28.9077 40.9695C27.9721 46.7487 27.7175 67.1641 27.7175 67.3702Z" fill="#263238"/>
<path d="M29.1679 67.424L28.6143 67.3971C29.572 54.2438 31.2549 42.4121 31.277 42.3091L31.8306 42.3628C31.8084 42.4524 30.1201 54.2707 29.1679 67.424Z" fill="#263238"/>
<path d="M23.6102 67.3748H23.0566C23.0566 67.1866 23.5271 48.5811 22.5861 46.0992C22.2595 45.248 21.8277 44.7552 21.3295 44.6163C21.175 44.5886 21.0149 44.589 20.8607 44.6177C20.7065 44.6464 20.5622 44.7025 20.4382 44.7821L20.3773 44.8224H20.2943C20.25 44.8224 15.9322 45.2704 14.3988 47.2461L13.9338 47.0087C15.5059 44.9703 19.5304 44.4551 20.1504 44.3879C20.3385 44.2749 20.5554 44.1974 20.7852 44.1609C21.0151 44.1245 21.2521 44.1301 21.4789 44.1773C22.1764 44.3386 22.7245 44.9389 23.1396 45.9693C24.0807 48.505 23.6268 66.6042 23.6102 67.3748Z" fill="#263238"/>
<path d="M24.8168 67.424L24.2632 67.3971C24.2632 67.2179 25.4147 49.0291 24.1691 43.4022L24.7227 43.326C25.9682 48.9932 24.8279 67.2179 24.8168 67.424Z" fill="#263238"/>
<path d="M29.8433 67.3972C29.8433 66.2861 29.5444 40.0468 32.434 33.8196C33.1294 32.1554 34.4492 30.7083 36.2093 29.6801L36.5193 30.0519C34.8549 31.0286 33.6071 32.4001 32.9488 33.9764C30.1035 40.1229 30.3969 67.1284 30.3969 67.3927L29.8433 67.3972Z" fill="#263238"/>
<path d="M26.9925 67.3971L26.4389 67.3389C27.1143 63.3069 25.7414 39.872 21.8554 30.8403C20.9707 28.6797 19.5966 26.6713 17.8033 24.9178L18.2295 24.6266C20.0672 26.4212 21.4769 28.4766 22.3868 30.688C26.2894 39.7779 27.6734 63.3383 26.9925 67.3971Z" fill="#263238"/>
<path d="M27.7175 67.3703H27.1639C27.1639 67.1418 27.3355 44.4193 27.568 33.1924H28.1216C27.8891 44.4193 27.7175 67.1418 27.7175 67.3703Z" fill="#263238"/>
<path d="M28.1494 31.7812H27.5958C27.7895 22.7271 27.9667 16.3968 28.1494 12.9652C28.5645 4.14852 29.1679 3.3242 29.4502 3.18532C29.7215 2.69252 31.0224 0.88708 35.5948 1.129L35.5616 1.577C30.8452 1.3306 29.9595 3.369 29.9208 3.44068L29.7879 3.77668L29.6883 3.70053C29.4835 4.18437 29.0295 6.01669 28.7029 12.9831C28.5203 16.4013 28.3431 22.7271 28.1494 31.7812Z" fill="#263238"/>
<path d="M21.6837 40.3514C21.6837 40.3514 17.6371 37.4349 19.2591 36.0013C20.881 34.5677 30.884 33.5104 33.8124 35.3786C36.7408 37.2467 30.253 39.8586 27.8283 40.4499C25.4037 41.0413 22.4919 40.8307 21.6837 40.3514Z" fill="#D590E4"/>
<path d="M24.6011 41.0278C23.2227 41.0278 22.038 40.8397 21.5177 40.535C21.4014 40.4499 18.7166 38.4966 18.617 36.9241C18.5985 36.7314 18.6292 36.5377 18.7073 36.355C18.7854 36.1723 18.9092 36.0046 19.0709 35.8624C20.8202 34.3033 30.9616 33.264 34.0173 35.2173C34.3152 35.3743 34.5503 35.5981 34.6938 35.8614C34.8373 36.1247 34.8831 36.4162 34.8255 36.7001C34.3992 38.4608 29.788 40.2259 27.9335 40.6649C26.8493 40.9119 25.7274 41.034 24.6011 41.0278ZM21.8332 40.1766C22.5639 40.5933 25.3373 40.7993 27.7287 40.2349C29.7548 39.7555 33.8844 38.0441 34.2331 36.615C34.2723 36.4087 34.2349 36.1976 34.1254 36.0085C34.016 35.8195 33.8396 35.661 33.6187 35.5533C30.8508 33.7926 20.9807 34.7872 19.4418 36.1491C19.3301 36.2484 19.2449 36.3654 19.1916 36.4925C19.1383 36.6197 19.1179 36.7545 19.1318 36.8883C19.237 38.2278 21.6782 40.0467 21.8554 40.1766H21.8332Z" fill="#263238"/>
<path d="M25.603 38.8326H25.0495C25.0538 38.5325 25.0853 38.2331 25.1436 37.9366L25.6971 38.0083C25.6414 38.2809 25.61 38.5564 25.603 38.8326Z" fill="#263238"/>
<path d="M26.0347 36.7898L25.4811 36.6598C25.7595 35.9032 26.113 35.1661 26.5384 34.4557L27.0311 34.6573C26.6332 35.3468 26.3001 36.0597 26.0347 36.7898Z" fill="#263238"/>
<path d="M21.6837 59.4317C21.6837 59.4317 17.6371 56.5152 19.2591 55.0816C20.881 53.648 30.884 52.5907 33.8124 54.4589C36.7408 56.327 30.253 58.9389 27.8283 59.5302C25.4037 60.1216 22.4919 59.911 21.6837 59.4317Z" fill="#D590E4"/>
<path d="M24.6011 60.1081C23.2227 60.1081 22.0381 59.92 21.5177 59.6153C21.4015 59.5302 18.7167 57.5769 18.617 56.0045C18.5982 55.8117 18.6288 55.6179 18.7069 55.4352C18.785 55.2525 18.909 55.0848 19.071 54.9427C20.8202 53.3837 30.9616 52.3443 34.0173 54.2976C34.3143 54.4543 34.5488 54.6774 34.6922 54.9398C34.8357 55.2022 34.882 55.4927 34.8255 55.776C34.3993 57.5366 29.788 59.3017 27.9336 59.7408C26.8496 59.9892 25.7277 60.1129 24.6011 60.1081ZM21.8333 59.2569C22.564 59.6736 25.3374 59.8796 27.7288 59.3152C29.7548 58.8358 33.8844 57.1245 34.2332 55.6953C34.2724 55.489 34.2349 55.2779 34.1255 55.0888C34.0161 54.8998 33.8397 54.7413 33.6187 54.6336C30.8509 52.8729 20.9808 53.8675 19.4419 55.2294C19.3302 55.3287 19.245 55.4457 19.1916 55.5729C19.1383 55.7001 19.118 55.8348 19.1319 55.9686C19.237 57.3081 21.6783 59.127 21.8554 59.2569H21.8333Z" fill="#263238"/>
<path d="M25.603 57.913H25.0495C25.0495 56 26.4998 53.6346 26.5607 53.536L27.0534 53.7376C27.0423 53.76 25.603 56.1075 25.603 57.913Z" fill="#263238"/>
<path d="M24.6951 51.3633C24.6951 51.3633 21.9273 49.3831 23.0344 48.4065C24.1415 47.4298 30.9393 46.7175 32.9211 47.9853C34.9029 49.2532 30.502 51.0407 28.8579 51.4305C27.2138 51.8202 25.2431 51.6903 24.6951 51.3633Z" fill="#D590E4"/>
<path d="M26.6824 51.8918C25.9388 51.9341 25.1949 51.8133 24.529 51.5423C24.4515 51.4886 22.6026 50.1401 22.5361 49.0425C22.5217 48.9028 22.5432 48.7621 22.5995 48.6295C22.6557 48.4968 22.7453 48.3751 22.8627 48.2719C24.0695 47.2012 31.0334 46.4799 33.1259 47.8239C33.3384 47.9426 33.5039 48.1086 33.6021 48.3018C33.7004 48.4951 33.7273 48.7072 33.6795 48.9126C33.3639 50.2073 30.048 51.3945 28.9409 51.6588C28.2045 51.8187 27.4448 51.897 26.6824 51.8918ZM24.8611 51.1884C25.3372 51.4572 27.2138 51.5827 28.7859 51.2153C30.1422 50.8927 32.91 49.7548 33.137 48.8095C33.1574 48.6825 33.1317 48.5534 33.0629 48.438C32.994 48.3226 32.8851 48.226 32.7495 48.1599C30.9061 46.9817 24.2743 47.6447 23.2447 48.5587C23.1761 48.6183 23.1243 48.6891 23.0928 48.7665C23.0612 48.8438 23.0507 48.9257 23.062 49.0067C23.1118 49.7593 24.3684 50.8479 24.8611 51.1884Z" fill="#263238"/>
<path d="M27.4463 50.3329H26.8928C26.8928 49.0157 27.8836 47.3985 27.9224 47.3268L28.4206 47.5284C27.8832 48.406 27.5528 49.3571 27.4463 50.3329Z" fill="#263238"/>
<path d="M31.8417 64.1222H20.8976V83.767H31.8417V64.1222Z" fill="#263238"/>
<path d="M31.8417 84H20.8976C20.8242 84 20.7538 83.9763 20.7019 83.9343C20.65 83.8923 20.6208 83.8354 20.6208 83.776V64.1222C20.6208 64.0628 20.65 64.0058 20.7019 63.9638C20.7538 63.9218 20.8242 63.8982 20.8976 63.8982H31.8417C31.9151 63.8982 31.9855 63.9218 32.0374 63.9638C32.0893 64.0058 32.1185 64.0628 32.1185 64.1222V83.767C32.1199 83.7972 32.1139 83.8272 32.1006 83.8555C32.0874 83.8837 32.0673 83.9094 32.0414 83.9312C32.0156 83.953 31.9845 83.9703 31.9502 83.9821C31.9159 83.9939 31.879 84 31.8417 84ZM21.1744 83.552H31.5649V64.3462H21.1744V83.552Z" fill="#263238"/>
</g>
</svg>
