<svg width="852" height="52" viewBox="0 0 852 52" fill="none" xmlns="http://www.w3.org/2000/svg">
<line x1="17.9937" y1="14.5" x2="820.994" y2="12.4697" stroke="#A964E3" stroke-width="5"/>
<circle cx="265.5" cy="12.5" r="11.5" fill="#A964E3"/>
<circle cx="535.5" cy="12.5" r="11.5" fill="#A964E3"/>
<circle cx="812.5" cy="11.5" r="11.5" fill="#F1EAFF"/>
<circle cx="22.5" cy="14.5" r="11.5" fill="#A964E3"/>
<path d="M2.64205 37.0909V48H1.32102V37.0909H2.64205ZM6.3774 43.0781V48H5.12029V39.8182H6.33478V41.0966H6.44132C6.63308 40.6811 6.92427 40.3473 7.3149 40.0952C7.70552 39.8395 8.20978 39.7116 8.82768 39.7116C9.38166 39.7116 9.86639 39.8253 10.2819 40.0526C10.6974 40.2763 11.0205 40.6172 11.2513 41.0753C11.4822 41.5298 11.5976 42.1051 11.5976 42.8011V48H10.3405V42.8864C10.3405 42.2436 10.1736 41.7429 9.83976 41.3842C9.50595 41.022 9.04785 40.8409 8.46547 40.8409C8.06419 40.8409 7.70552 40.9279 7.38947 41.1019C7.07697 41.2759 6.83017 41.5298 6.64906 41.8636C6.46795 42.1974 6.3774 42.6023 6.3774 43.0781ZM13.8947 48V39.8182H15.1518V48H13.8947ZM14.5339 38.4545C14.2889 38.4545 14.0776 38.3711 13.9 38.2042C13.726 38.0373 13.639 37.8366 13.639 37.6023C13.639 37.3679 13.726 37.1673 13.9 37.0004C14.0776 36.8335 14.2889 36.75 14.5339 36.75C14.7789 36.75 14.9885 36.8335 15.1625 37.0004C15.34 37.1673 15.4288 37.3679 15.4288 37.6023C15.4288 37.8366 15.34 38.0373 15.1625 38.2042C14.9885 38.3711 14.7789 38.4545 14.5339 38.4545ZM21.0125 39.8182V40.8835H16.7725V39.8182H21.0125ZM18.0083 37.858H19.2654V45.6562C19.2654 46.0114 19.3169 46.2777 19.4198 46.4553C19.5264 46.6293 19.6613 46.7464 19.8247 46.8068C19.9916 46.8636 20.1673 46.892 20.352 46.892C20.4905 46.892 20.6041 46.8849 20.6929 46.8707C20.7817 46.853 20.8527 46.8388 20.906 46.8281L21.1617 47.9574C21.0764 47.9893 20.9575 48.0213 20.8048 48.0533C20.6521 48.0888 20.4585 48.1065 20.2242 48.1065C19.8691 48.1065 19.521 48.0302 19.1801 47.8775C18.8428 47.7248 18.5622 47.4922 18.3385 47.1797C18.1183 46.8672 18.0083 46.473 18.0083 45.9972V37.858ZM22.9035 48V39.8182H24.1606V48H22.9035ZM23.5427 38.4545C23.2977 38.4545 23.0864 38.3711 22.9088 38.2042C22.7348 38.0373 22.6478 37.8366 22.6478 37.6023C22.6478 37.3679 22.7348 37.1673 22.9088 37.0004C23.0864 36.8335 23.2977 36.75 23.5427 36.75C23.7877 36.75 23.9972 36.8335 24.1713 37.0004C24.3488 37.1673 24.4376 37.3679 24.4376 37.6023C24.4376 37.8366 24.3488 38.0373 24.1713 38.2042C23.9972 38.3711 23.7877 38.4545 23.5427 38.4545ZM28.8707 48.1918C28.3523 48.1918 27.8817 48.0941 27.4592 47.8988C27.0366 47.6999 26.701 47.4141 26.4524 47.0412C26.2038 46.6648 26.0795 46.2102 26.0795 45.6776C26.0795 45.2088 26.1719 44.8288 26.3565 44.5376C26.5412 44.2429 26.788 44.0121 27.0969 43.8452C27.4059 43.6783 27.7468 43.554 28.1197 43.4723C28.4961 43.3871 28.8743 43.3196 29.2543 43.2699C29.7514 43.206 30.1545 43.158 30.4634 43.1261C30.7759 43.0906 31.0032 43.032 31.1452 42.9503C31.2908 42.8686 31.3636 42.7266 31.3636 42.5241V42.4815C31.3636 41.956 31.2198 41.5476 30.9322 41.2564C30.6481 40.9652 30.2166 40.8196 29.6378 40.8196C29.0376 40.8196 28.5671 40.951 28.2262 41.2138C27.8853 41.4766 27.6456 41.7571 27.5071 42.0554L26.3139 41.6293C26.527 41.1321 26.8111 40.745 27.1662 40.468C27.5249 40.1875 27.9155 39.9922 28.3381 39.8821C28.7642 39.7685 29.1832 39.7116 29.5952 39.7116C29.858 39.7116 30.1598 39.7436 30.5007 39.8075C30.8452 39.8679 31.1772 39.994 31.4968 40.1857C31.82 40.3775 32.0881 40.6669 32.3011 41.054C32.5142 41.4411 32.6207 41.9595 32.6207 42.6094V48H31.3636V46.892H31.2997C31.2145 47.0696 31.0724 47.2596 30.8736 47.462C30.6747 47.6644 30.4102 47.8366 30.0799 47.9787C29.7496 48.1207 29.3466 48.1918 28.8707 48.1918ZM29.0625 47.0625C29.5597 47.0625 29.9787 46.9648 30.3196 46.7695C30.6641 46.5742 30.9233 46.3221 31.0973 46.0131C31.2749 45.7042 31.3636 45.3793 31.3636 45.0384V43.8878C31.3104 43.9517 31.1932 44.0103 31.0121 44.0636C30.8345 44.1133 30.6286 44.1577 30.3942 44.1967C30.1634 44.2322 29.9379 44.2642 29.7177 44.2926C29.5011 44.3175 29.3253 44.3388 29.1903 44.3565C28.8636 44.3991 28.5582 44.4684 28.2741 44.5643C27.9936 44.6566 27.7663 44.7969 27.5923 44.9851C27.4219 45.1697 27.3366 45.4219 27.3366 45.7415C27.3366 46.1783 27.4982 46.5085 27.8214 46.7322C28.1481 46.9524 28.5618 47.0625 29.0625 47.0625ZM38.4735 39.8182V40.8835H34.2334V39.8182H38.4735ZM35.4692 37.858H36.7263V45.6562C36.7263 46.0114 36.7778 46.2777 36.8808 46.4553C36.9873 46.6293 37.1222 46.7464 37.2856 46.8068C37.4525 46.8636 37.6283 46.892 37.8129 46.892C37.9514 46.892 38.0651 46.8849 38.1539 46.8707C38.2426 46.853 38.3137 46.8388 38.3669 46.8281L38.6226 47.9574C38.5374 47.9893 38.4184 48.0213 38.2657 48.0533C38.113 48.0888 37.9195 48.1065 37.6851 48.1065C37.33 48.1065 36.982 48.0302 36.6411 47.8775C36.3037 47.7248 36.0232 47.4922 35.7994 47.1797C35.5793 46.8672 35.4692 46.473 35.4692 45.9972V37.858ZM43.7069 48.1705C42.9186 48.1705 42.2385 47.9964 41.6668 47.6484C41.0986 47.2969 40.6601 46.8068 40.3511 46.1783C40.0457 45.5462 39.893 44.8111 39.893 43.973C39.893 43.1349 40.0457 42.3963 40.3511 41.7571C40.6601 41.1143 41.0898 40.6136 41.6402 40.255C42.1942 39.8928 42.8405 39.7116 43.5791 39.7116C44.0052 39.7116 44.426 39.7827 44.8415 39.9247C45.257 40.0668 45.6352 40.2976 45.9761 40.6172C46.317 40.9332 46.5887 41.3523 46.7911 41.8743C46.9935 42.3963 47.0947 43.0391 47.0947 43.8026V44.3352H40.7879V43.2486H45.8163C45.8163 42.7869 45.724 42.375 45.5393 42.0128C45.3582 41.6506 45.099 41.3647 44.7616 41.1552C44.4278 40.9457 44.0336 40.8409 43.5791 40.8409C43.0784 40.8409 42.6452 40.9652 42.2794 41.2138C41.9172 41.4588 41.6384 41.7784 41.4431 42.1726C41.2478 42.5668 41.1501 42.9893 41.1501 43.4403V44.1648C41.1501 44.7827 41.2567 45.3065 41.4697 45.7362C41.6863 46.1623 41.9864 46.4872 42.3699 46.7109C42.7535 46.9311 43.1991 47.0412 43.7069 47.0412C44.0372 47.0412 44.3355 46.995 44.6018 46.9027C44.8717 46.8068 45.1043 46.6648 45.2996 46.4766C45.4949 46.2848 45.6459 46.0469 45.7524 45.7628L46.9669 46.1037C46.839 46.5156 46.6242 46.8778 46.3224 47.1903C46.0205 47.4993 45.6476 47.7408 45.2037 47.9148C44.7599 48.0852 44.2609 48.1705 43.7069 48.1705ZM52.0965 48.1705C51.4147 48.1705 50.8128 47.9982 50.2907 47.6538C49.7687 47.3058 49.3604 46.8157 49.0656 46.1836C48.7709 45.5479 48.6235 44.7969 48.6235 43.9304C48.6235 43.071 48.7709 42.3253 49.0656 41.6932C49.3604 41.0611 49.7705 40.5728 50.2961 40.2283C50.8216 39.8839 51.4289 39.7116 52.1178 39.7116C52.6505 39.7116 53.0713 39.8004 53.3802 39.978C53.6927 40.152 53.9307 40.3509 54.094 40.5746C54.2609 40.7947 54.3905 40.9759 54.4829 41.1179H54.5894V37.0909H55.8465V48H54.632V46.7429H54.4829C54.3905 46.892 54.2591 47.0803 54.0887 47.3075C53.9182 47.5312 53.675 47.7319 53.3589 47.9094C53.0429 48.0835 52.6221 48.1705 52.0965 48.1705ZM52.267 47.0412C52.7712 47.0412 53.1974 46.9098 53.5454 46.647C53.8934 46.3807 54.1579 46.0131 54.339 45.5444C54.5202 45.0721 54.6107 44.527 54.6107 43.9091C54.6107 43.2983 54.5219 42.7638 54.3444 42.3058C54.1668 41.8441 53.904 41.4854 53.556 41.2298C53.208 40.9705 52.7783 40.8409 52.267 40.8409C51.7343 40.8409 51.2904 40.9776 50.9353 41.2511C50.5837 41.521 50.3192 41.8885 50.1416 42.3537C49.9676 42.8153 49.8806 43.3338 49.8806 43.9091C49.8806 44.4915 49.9694 45.0206 50.1469 45.4964C50.328 45.9687 50.5944 46.3452 50.9459 46.6257C51.301 46.9027 51.7414 47.0412 52.267 47.0412Z" fill="black"/>
<path d="M509.321 48V37.0909H515.905V38.2628H510.642V41.9489H515.564V43.1207H510.642V46.8281H515.99V48H509.321ZM519.053 39.8182L521.013 43.1634L522.973 39.8182H524.422L521.78 43.9091L524.422 48H522.973L521.013 44.8253L519.053 48H517.604L520.203 43.9091L517.604 39.8182H519.053ZM529.309 48.1705C528.521 48.1705 527.841 47.9964 527.269 47.6484C526.701 47.2969 526.263 46.8068 525.954 46.1783C525.648 45.5462 525.496 44.8111 525.496 43.973C525.496 43.1349 525.648 42.3963 525.954 41.7571C526.263 41.1143 526.692 40.6136 527.243 40.255C527.797 39.8928 528.443 39.7116 529.182 39.7116C529.608 39.7116 530.029 39.7827 530.444 39.9247C530.86 40.0668 531.238 40.2976 531.579 40.6172C531.92 40.9332 532.191 41.3523 532.394 41.8743C532.596 42.3963 532.697 43.0391 532.697 43.8026V44.3352H526.39V43.2486H531.419C531.419 42.7869 531.327 42.375 531.142 42.0128C530.961 41.6506 530.702 41.3647 530.364 41.1552C530.03 40.9457 529.636 40.8409 529.182 40.8409C528.681 40.8409 528.248 40.9652 527.882 41.2138C527.52 41.4588 527.241 41.7784 527.046 42.1726C526.85 42.5668 526.753 42.9893 526.753 43.4403V44.1648C526.753 44.7827 526.859 45.3065 527.072 45.7362C527.289 46.1623 527.589 46.4872 527.972 46.7109C528.356 46.9311 528.802 47.0412 529.309 47.0412C529.64 47.0412 529.938 46.995 530.204 46.9027C530.474 46.8068 530.707 46.6648 530.902 46.4766C531.097 46.2848 531.248 46.0469 531.355 45.7628L532.569 46.1037C532.442 46.5156 532.227 46.8778 531.925 47.1903C531.623 47.4993 531.25 47.7408 530.806 47.9148C530.362 48.0852 529.863 48.1705 529.309 48.1705ZM537.933 48.1705C537.166 48.1705 536.506 47.9893 535.952 47.6271C535.398 47.2649 534.972 46.766 534.673 46.1303C534.375 45.4947 534.226 44.7685 534.226 43.9517C534.226 43.1207 534.379 42.3874 534.684 41.7518C534.993 41.1126 535.423 40.6136 535.973 40.255C536.527 39.8928 537.173 39.7116 537.912 39.7116C538.487 39.7116 539.006 39.8182 539.468 40.0312C539.929 40.2443 540.307 40.5426 540.602 40.9261C540.897 41.3097 541.08 41.7571 541.151 42.2685H539.894C539.798 41.8956 539.585 41.5653 539.254 41.2777C538.928 40.9865 538.487 40.8409 537.933 40.8409C537.443 40.8409 537.014 40.9687 536.644 41.2244C536.279 41.4766 535.993 41.8335 535.787 42.2951C535.584 42.7532 535.483 43.2912 535.483 43.9091C535.483 44.5412 535.583 45.0916 535.781 45.5604C535.984 46.0291 536.268 46.3931 536.634 46.6523C537.003 46.9116 537.436 47.0412 537.933 47.0412C538.26 47.0412 538.557 46.9844 538.823 46.8707C539.089 46.7571 539.315 46.5938 539.499 46.3807C539.684 46.1676 539.816 45.9119 539.894 45.6136H541.151C541.08 46.0966 540.904 46.5316 540.623 46.9187C540.346 47.3022 539.979 47.6076 539.521 47.8349C539.066 48.0586 538.537 48.1705 537.933 48.1705ZM548.145 44.6548V39.8182H549.402V48H548.145V46.6151H548.059C547.868 47.0305 547.569 47.3839 547.165 47.6751C546.76 47.9627 546.248 48.1065 545.631 48.1065C545.119 48.1065 544.665 47.9947 544.267 47.771C543.869 47.5437 543.557 47.2028 543.329 46.7482C543.102 46.2901 542.988 45.7131 542.988 45.017V39.8182H544.246V44.9318C544.246 45.5284 544.412 46.0043 544.746 46.3594C545.084 46.7145 545.513 46.892 546.035 46.892C546.348 46.892 546.666 46.8121 546.989 46.6523C547.316 46.4925 547.589 46.2475 547.809 45.9173C548.033 45.587 548.145 45.1662 548.145 44.6548ZM555.263 39.8182V40.8835H551.022V39.8182H555.263ZM552.258 37.858H553.515V45.6562C553.515 46.0114 553.567 46.2777 553.67 46.4553C553.776 46.6293 553.911 46.7464 554.075 46.8068C554.242 46.8636 554.417 46.892 554.602 46.892C554.741 46.892 554.854 46.8849 554.943 46.8707C555.032 46.853 555.103 46.8388 555.156 46.8281L555.412 47.9574C555.326 47.9893 555.207 48.0213 555.055 48.0533C554.902 48.0888 554.709 48.1065 554.474 48.1065C554.119 48.1065 553.771 48.0302 553.43 47.8775C553.093 47.7248 552.812 47.4922 552.589 47.1797C552.368 46.8672 552.258 46.473 552.258 45.9972V37.858ZM560.496 48.1705C559.708 48.1705 559.028 47.9964 558.456 47.6484C557.888 47.2969 557.449 46.8068 557.14 46.1783C556.835 45.5462 556.682 44.8111 556.682 43.973C556.682 43.1349 556.835 42.3963 557.14 41.7571C557.449 41.1143 557.879 40.6136 558.429 40.255C558.983 39.8928 559.63 39.7116 560.368 39.7116C560.794 39.7116 561.215 39.7827 561.631 39.9247C562.046 40.0668 562.424 40.2976 562.765 40.6172C563.106 40.9332 563.378 41.3523 563.58 41.8743C563.783 42.3963 563.884 43.0391 563.884 43.8026V44.3352H557.577V43.2486H562.605C562.605 42.7869 562.513 42.375 562.328 42.0128C562.147 41.6506 561.888 41.3647 561.551 41.1552C561.217 40.9457 560.823 40.8409 560.368 40.8409C559.867 40.8409 559.434 40.9652 559.068 41.2138C558.706 41.4588 558.427 41.7784 558.232 42.1726C558.037 42.5668 557.939 42.9893 557.939 43.4403V44.1648C557.939 44.7827 558.046 45.3065 558.259 45.7362C558.475 46.1623 558.775 46.4872 559.159 46.7109C559.543 46.9311 559.988 47.0412 560.496 47.0412C560.826 47.0412 561.125 46.995 561.391 46.9027C561.661 46.8068 561.893 46.6648 562.089 46.4766C562.284 46.2848 562.435 46.0469 562.541 45.7628L563.756 46.1037C563.628 46.5156 563.413 46.8778 563.111 47.1903C562.81 47.4993 562.437 47.7408 561.993 47.9148C561.549 48.0852 561.05 48.1705 560.496 48.1705ZM568.886 48.1705C568.204 48.1705 567.602 47.9982 567.08 47.6538C566.558 47.3058 566.149 46.8157 565.855 46.1836C565.56 45.5479 565.413 44.7969 565.413 43.9304C565.413 43.071 565.56 42.3253 565.855 41.6932C566.149 41.0611 566.56 40.5728 567.085 40.2283C567.611 39.8839 568.218 39.7116 568.907 39.7116C569.44 39.7116 569.86 39.8004 570.169 39.978C570.482 40.152 570.72 40.3509 570.883 40.5746C571.05 40.7947 571.18 40.9759 571.272 41.1179H571.378V37.0909H572.636V48H571.421V46.7429H571.272C571.18 46.892 571.048 47.0803 570.878 47.3075C570.707 47.5312 570.464 47.7319 570.148 47.9094C569.832 48.0835 569.411 48.1705 568.886 48.1705ZM569.056 47.0412C569.56 47.0412 569.986 46.9098 570.334 46.647C570.682 46.3807 570.947 46.0131 571.128 45.5444C571.309 45.0721 571.4 44.527 571.4 43.9091C571.4 43.2983 571.311 42.7638 571.133 42.3058C570.956 41.8441 570.693 41.4854 570.345 41.2298C569.997 40.9705 569.567 40.8409 569.056 40.8409C568.523 40.8409 568.079 40.9776 567.724 41.2511C567.373 41.521 567.108 41.8885 566.931 42.3537C566.757 42.8153 566.67 43.3338 566.67 43.9091C566.67 44.4915 566.758 45.0206 566.936 45.4964C567.117 45.9687 567.383 46.3452 567.735 46.6257C568.09 46.9027 568.53 47.0412 569.056 47.0412Z" fill="black"/>
<path d="M784.099 36.5H782.778C782.7 36.12 782.564 35.7862 782.368 35.4986C782.176 35.2109 781.942 34.9695 781.665 34.7741C781.392 34.5753 781.088 34.4261 780.754 34.3267C780.42 34.2273 780.072 34.1776 779.71 34.1776C779.05 34.1776 778.451 34.3445 777.915 34.6783C777.382 35.0121 776.958 35.5039 776.642 36.1538C776.33 36.8036 776.173 37.6009 776.173 38.5455C776.173 39.4901 776.33 40.2873 776.642 40.9371C776.958 41.587 777.382 42.0788 777.915 42.4126C778.451 42.7464 779.05 42.9134 779.71 42.9134C780.072 42.9134 780.42 42.8636 780.754 42.7642C781.088 42.6648 781.392 42.5174 781.665 42.3221C781.942 42.1232 782.176 41.88 782.368 41.5923C782.564 41.3011 782.7 40.9673 782.778 40.5909H784.099C784 41.1484 783.819 41.6474 783.556 42.0877C783.293 42.5281 782.967 42.9027 782.576 43.2116C782.185 43.517 781.747 43.7496 781.26 43.9094C780.777 44.0692 780.261 44.1491 779.71 44.1491C778.78 44.1491 777.952 43.9219 777.228 43.4673C776.504 43.0128 775.934 42.3665 775.518 41.5284C775.103 40.6903 774.895 39.696 774.895 38.5455C774.895 37.3949 775.103 36.4006 775.518 35.5625C775.934 34.7244 776.504 34.0781 777.228 33.6236C777.952 33.169 778.78 32.9418 779.71 32.9418C780.261 32.9418 780.777 33.0217 781.26 33.1815C781.747 33.3413 782.185 33.5756 782.576 33.8846C782.967 34.19 783.293 34.5629 783.556 35.0032C783.819 35.44 784 35.9389 784.099 36.5ZM789.388 44.1705C788.649 44.1705 788.001 43.9947 787.443 43.6431C786.889 43.2915 786.456 42.7997 786.144 42.1676C785.835 41.5355 785.68 40.7969 785.68 39.9517C785.68 39.0994 785.835 38.3555 786.144 37.7198C786.456 37.0842 786.889 36.5906 787.443 36.239C788.001 35.8874 788.649 35.7116 789.388 35.7116C790.126 35.7116 790.772 35.8874 791.326 36.239C791.884 36.5906 792.317 37.0842 792.626 37.7198C792.939 38.3555 793.095 39.0994 793.095 39.9517C793.095 40.7969 792.939 41.5355 792.626 42.1676C792.317 42.7997 791.884 43.2915 791.326 43.6431C790.772 43.9947 790.126 44.1705 789.388 44.1705ZM789.388 43.0412C789.949 43.0412 790.41 42.8974 790.772 42.6097C791.135 42.3221 791.403 41.9439 791.577 41.4751C791.751 41.0064 791.838 40.4986 791.838 39.9517C791.838 39.4048 791.751 38.8952 791.577 38.4229C791.403 37.9506 791.135 37.5689 790.772 37.2777C790.41 36.9865 789.949 36.8409 789.388 36.8409C788.826 36.8409 788.365 36.9865 788.003 37.2777C787.64 37.5689 787.372 37.9506 787.198 38.4229C787.024 38.8952 786.937 39.4048 786.937 39.9517C786.937 40.4986 787.024 41.0064 787.198 41.4751C787.372 41.9439 787.64 42.3221 788.003 42.6097C788.365 42.8974 788.826 43.0412 789.388 43.0412ZM795.014 44V35.8182H796.228V37.0966H796.335C796.505 36.6598 796.781 36.3207 797.161 36.0792C797.54 35.8342 797.997 35.7116 798.529 35.7116C799.069 35.7116 799.518 35.8342 799.877 36.0792C800.239 36.3207 800.522 36.6598 800.724 37.0966H800.809C801.019 36.674 801.333 36.3384 801.752 36.0898C802.171 35.8377 802.674 35.7116 803.26 35.7116C803.991 35.7116 804.589 35.9407 805.055 36.3988C805.52 36.8533 805.752 37.5618 805.752 38.5241V44H804.495V38.5241C804.495 37.9205 804.33 37.489 804 37.2298C803.67 36.9705 803.281 36.8409 802.833 36.8409C802.258 36.8409 801.813 37.0149 801.496 37.3629C801.18 37.7074 801.022 38.1442 801.022 38.6733V44H799.744V38.3963C799.744 37.9311 799.593 37.5565 799.291 37.2724C798.989 36.9847 798.6 36.8409 798.125 36.8409C797.798 36.8409 797.493 36.9279 797.208 37.1019C796.928 37.2759 796.701 37.5174 796.527 37.8263C796.356 38.1317 796.271 38.4851 796.271 38.8864V44H795.014ZM808.051 47.0682V35.8182H809.265V37.1179H809.415C809.507 36.9759 809.635 36.7947 809.798 36.5746C809.965 36.3509 810.203 36.152 810.512 35.978C810.824 35.8004 811.247 35.7116 811.78 35.7116C812.469 35.7116 813.076 35.8839 813.601 36.2283C814.127 36.5728 814.537 37.0611 814.832 37.6932C815.127 38.3253 815.274 39.071 815.274 39.9304C815.274 40.7969 815.127 41.5479 814.832 42.1836C814.537 42.8157 814.129 43.3058 813.607 43.6538C813.085 43.9982 812.483 44.1705 811.801 44.1705C811.275 44.1705 810.855 44.0835 810.539 43.9094C810.222 43.7319 809.979 43.5312 809.809 43.3075C809.638 43.0803 809.507 42.892 809.415 42.7429H809.308V47.0682H808.051ZM809.287 39.9091C809.287 40.527 809.377 41.0721 809.558 41.5444C809.74 42.0131 810.004 42.3807 810.352 42.647C810.7 42.9098 811.126 43.0412 811.631 43.0412C812.156 43.0412 812.595 42.9027 812.946 42.6257C813.301 42.3452 813.568 41.9687 813.745 41.4964C813.926 41.0206 814.017 40.4915 814.017 39.9091C814.017 39.3338 813.928 38.8153 813.751 38.3537C813.577 37.8885 813.312 37.521 812.957 37.2511C812.605 36.9776 812.163 36.8409 811.631 36.8409C811.119 36.8409 810.689 36.9705 810.341 37.2298C809.993 37.4854 809.731 37.8441 809.553 38.3058C809.376 38.7638 809.287 39.2983 809.287 39.9091ZM818.449 33.0909V44H817.192V33.0909H818.449ZM824.182 44.1705C823.393 44.1705 822.713 43.9964 822.141 43.6484C821.573 43.2969 821.135 42.8068 820.826 42.1783C820.52 41.5462 820.368 40.8111 820.368 39.973C820.368 39.1349 820.52 38.3963 820.826 37.7571C821.135 37.1143 821.564 36.6136 822.115 36.255C822.669 35.8928 823.315 35.7116 824.054 35.7116C824.48 35.7116 824.901 35.7827 825.316 35.9247C825.732 36.0668 826.11 36.2976 826.451 36.6172C826.792 36.9332 827.063 37.3523 827.266 37.8743C827.468 38.3963 827.569 39.0391 827.569 39.8026V40.3352H821.263V39.2486H826.291C826.291 38.7869 826.199 38.375 826.014 38.0128C825.833 37.6506 825.574 37.3647 825.236 37.1552C824.902 36.9457 824.508 36.8409 824.054 36.8409C823.553 36.8409 823.12 36.9652 822.754 37.2138C822.392 37.4588 822.113 37.7784 821.918 38.1726C821.722 38.5668 821.625 38.9893 821.625 39.4403V40.1648C821.625 40.7827 821.731 41.3065 821.944 41.7362C822.161 42.1623 822.461 42.4872 822.845 42.7109C823.228 42.9311 823.674 43.0412 824.182 43.0412C824.512 43.0412 824.81 42.995 825.076 42.9027C825.346 42.8068 825.579 42.6648 825.774 42.4766C825.97 42.2848 826.12 42.0469 826.227 41.7628L827.441 42.1037C827.314 42.5156 827.099 42.8778 826.797 43.1903C826.495 43.4993 826.122 43.7408 825.678 43.9148C825.234 44.0852 824.736 44.1705 824.182 44.1705ZM833.04 35.8182V36.8835H828.8V35.8182H833.04ZM830.036 33.858H831.293V41.6562C831.293 42.0114 831.344 42.2777 831.447 42.4553C831.554 42.6293 831.689 42.7464 831.852 42.8068C832.019 42.8636 832.195 42.892 832.379 42.892C832.518 42.892 832.631 42.8849 832.72 42.8707C832.809 42.853 832.88 42.8388 832.933 42.8281L833.189 43.9574C833.104 43.9893 832.985 44.0213 832.832 44.0533C832.679 44.0888 832.486 44.1065 832.252 44.1065C831.896 44.1065 831.548 44.0302 831.207 43.8775C830.87 43.7248 830.59 43.4922 830.366 43.1797C830.146 42.8672 830.036 42.473 830.036 41.9972V33.858ZM838.273 44.1705C837.485 44.1705 836.805 43.9964 836.233 43.6484C835.665 43.2969 835.226 42.8068 834.918 42.1783C834.612 41.5462 834.459 40.8111 834.459 39.973C834.459 39.1349 834.612 38.3963 834.918 37.7571C835.226 37.1143 835.656 36.6136 836.207 36.255C836.761 35.8928 837.407 35.7116 838.146 35.7116C838.572 35.7116 838.992 35.7827 839.408 35.9247C839.823 36.0668 840.202 36.2976 840.543 36.6172C840.883 36.9332 841.155 37.3523 841.358 37.8743C841.56 38.3963 841.661 39.0391 841.661 39.8026V40.3352H835.354V39.2486H840.383C840.383 38.7869 840.29 38.375 840.106 38.0128C839.925 37.6506 839.665 37.3647 839.328 37.1552C838.994 36.9457 838.6 36.8409 838.146 36.8409C837.645 36.8409 837.212 36.9652 836.846 37.2138C836.484 37.4588 836.205 37.7784 836.009 38.1726C835.814 38.5668 835.717 38.9893 835.717 39.4403V40.1648C835.717 40.7827 835.823 41.3065 836.036 41.7362C836.253 42.1623 836.553 42.4872 836.936 42.7109C837.32 42.9311 837.766 43.0412 838.273 43.0412C838.604 43.0412 838.902 42.995 839.168 42.9027C839.438 42.8068 839.671 42.6648 839.866 42.4766C840.061 42.2848 840.212 42.0469 840.319 41.7628L841.533 42.1037C841.405 42.5156 841.191 42.8778 840.889 43.1903C840.587 43.4993 840.214 43.7408 839.77 43.9148C839.326 44.0852 838.827 44.1705 838.273 44.1705ZM846.663 44.1705C845.981 44.1705 845.379 43.9982 844.857 43.6538C844.335 43.3058 843.927 42.8157 843.632 42.1836C843.337 41.5479 843.19 40.7969 843.19 39.9304C843.19 39.071 843.337 38.3253 843.632 37.6932C843.927 37.0611 844.337 36.5728 844.862 36.2283C845.388 35.8839 845.995 35.7116 846.684 35.7116C847.217 35.7116 847.638 35.8004 847.947 35.978C848.259 36.152 848.497 36.3509 848.66 36.5746C848.827 36.7947 848.957 36.9759 849.049 37.1179H849.156V33.0909H850.413V44H849.198V42.7429H849.049C848.957 42.892 848.826 43.0803 848.655 43.3075C848.485 43.5312 848.241 43.7319 847.925 43.9094C847.609 44.0835 847.188 44.1705 846.663 44.1705ZM846.833 43.0412C847.338 43.0412 847.764 42.9098 848.112 42.647C848.46 42.3807 848.724 42.0131 848.905 41.5444C849.087 41.0721 849.177 40.527 849.177 39.9091C849.177 39.2983 849.088 38.7638 848.911 38.3058C848.733 37.8441 848.47 37.4854 848.122 37.2298C847.774 36.9705 847.345 36.8409 846.833 36.8409C846.301 36.8409 845.857 36.9776 845.502 37.2511C845.15 37.521 844.886 37.8885 844.708 38.3537C844.534 38.8153 844.447 39.3338 844.447 39.9091C844.447 40.4915 844.536 41.0206 844.713 41.4964C844.894 41.9687 845.161 42.3452 845.512 42.6257C845.867 42.9027 846.308 43.0412 846.833 43.0412Z" fill="black"/>
<path d="M237.321 48V37.0909H241.007C241.863 37.0909 242.563 37.2454 243.106 37.5543C243.653 37.8597 244.058 38.2734 244.32 38.7955C244.583 39.3175 244.714 39.8999 244.714 40.5426C244.714 41.1854 244.583 41.7695 244.32 42.2951C244.061 42.8207 243.66 43.2397 243.116 43.5522C242.573 43.8612 241.877 44.0156 241.028 44.0156H238.386V42.8438H240.986C241.572 42.8438 242.042 42.7425 242.397 42.5401C242.752 42.3377 243.01 42.0643 243.17 41.7198C243.333 41.3718 243.415 40.9794 243.415 40.5426C243.415 40.1058 243.333 39.7152 243.17 39.3707C243.01 39.0263 242.751 38.7564 242.392 38.5611C242.033 38.3622 241.558 38.2628 240.964 38.2628H238.642V48H237.321ZM247.929 37.0909V48H246.672V37.0909H247.929ZM252.639 48.1918C252.121 48.1918 251.65 48.0941 251.228 47.8988C250.805 47.6999 250.47 47.4141 250.221 47.0412C249.972 46.6648 249.848 46.2102 249.848 45.6776C249.848 45.2088 249.94 44.8288 250.125 44.5376C250.31 44.2429 250.557 44.0121 250.866 43.8452C251.174 43.6783 251.515 43.554 251.888 43.4723C252.265 43.3871 252.643 43.3196 253.023 43.2699C253.52 43.206 253.923 43.158 254.232 43.1261C254.544 43.0906 254.772 43.032 254.914 42.9503C255.059 42.8686 255.132 42.7266 255.132 42.5241V42.4815C255.132 41.956 254.988 41.5476 254.701 41.2564C254.417 40.9652 253.985 40.8196 253.406 40.8196C252.806 40.8196 252.336 40.951 251.995 41.2138C251.654 41.4766 251.414 41.7571 251.276 42.0554L250.082 41.6293C250.296 41.1321 250.58 40.745 250.935 40.468C251.293 40.1875 251.684 39.9922 252.107 39.8821C252.533 39.7685 252.952 39.7116 253.364 39.7116C253.627 39.7116 253.928 39.7436 254.269 39.8075C254.614 39.8679 254.946 39.994 255.265 40.1857C255.589 40.3775 255.857 40.6669 256.07 41.054C256.283 41.4411 256.389 41.9595 256.389 42.6094V48H255.132V46.892H255.068C254.983 47.0696 254.841 47.2596 254.642 47.462C254.443 47.6644 254.179 47.8366 253.848 47.9787C253.518 48.1207 253.115 48.1918 252.639 48.1918ZM252.831 47.0625C253.328 47.0625 253.747 46.9648 254.088 46.7695C254.433 46.5742 254.692 46.3221 254.866 46.0131C255.043 45.7042 255.132 45.3793 255.132 45.0384V43.8878C255.079 43.9517 254.962 44.0103 254.781 44.0636C254.603 44.1133 254.397 44.1577 254.163 44.1967C253.932 44.2322 253.706 44.2642 253.486 44.2926C253.27 44.3175 253.094 44.3388 252.959 44.3565C252.632 44.3991 252.327 44.4684 252.043 44.5643C251.762 44.6566 251.535 44.7969 251.361 44.9851C251.19 45.1697 251.105 45.4219 251.105 45.7415C251.105 46.1783 251.267 46.5085 251.59 46.7322C251.917 46.9524 252.33 47.0625 252.831 47.0625ZM259.941 43.0781V48H258.684V39.8182H259.898V41.0966H260.005C260.197 40.6811 260.488 40.3473 260.878 40.0952C261.269 39.8395 261.773 39.7116 262.391 39.7116C262.945 39.7116 263.43 39.8253 263.845 40.0526C264.261 40.2763 264.584 40.6172 264.815 41.0753C265.046 41.5298 265.161 42.1051 265.161 42.8011V48H263.904V42.8864C263.904 42.2436 263.737 41.7429 263.403 41.3842C263.069 41.022 262.611 40.8409 262.029 40.8409C261.628 40.8409 261.269 40.9279 260.953 41.1019C260.64 41.2759 260.394 41.5298 260.213 41.8636C260.031 42.1974 259.941 42.6023 259.941 43.0781ZM268.715 43.0781V48H267.458V39.8182H268.673V41.0966H268.779C268.971 40.6811 269.262 40.3473 269.653 40.0952C270.043 39.8395 270.548 39.7116 271.166 39.7116C271.72 39.7116 272.204 39.8253 272.62 40.0526C273.035 40.2763 273.358 40.6172 273.589 41.0753C273.82 41.5298 273.935 42.1051 273.935 42.8011V48H272.678V42.8864C272.678 42.2436 272.511 41.7429 272.178 41.3842C271.844 41.022 271.386 40.8409 270.803 40.8409C270.402 40.8409 270.043 40.9279 269.727 41.1019C269.415 41.2759 269.168 41.5298 268.987 41.8636C268.806 42.1974 268.715 42.6023 268.715 43.0781ZM279.663 48.1705C278.875 48.1705 278.195 47.9964 277.623 47.6484C277.055 47.2969 276.616 46.8068 276.307 46.1783C276.002 45.5462 275.849 44.8111 275.849 43.973C275.849 43.1349 276.002 42.3963 276.307 41.7571C276.616 41.1143 277.046 40.6136 277.596 40.255C278.15 39.8928 278.797 39.7116 279.535 39.7116C279.961 39.7116 280.382 39.7827 280.798 39.9247C281.213 40.0668 281.591 40.2976 281.932 40.6172C282.273 40.9332 282.545 41.3523 282.747 41.8743C282.95 42.3963 283.051 43.0391 283.051 43.8026V44.3352H276.744V43.2486H281.772C281.772 42.7869 281.68 42.375 281.495 42.0128C281.314 41.6506 281.055 41.3647 280.718 41.1552C280.384 40.9457 279.99 40.8409 279.535 40.8409C279.034 40.8409 278.601 40.9652 278.235 41.2138C277.873 41.4588 277.594 41.7784 277.399 42.1726C277.204 42.5668 277.106 42.9893 277.106 43.4403V44.1648C277.106 44.7827 277.213 45.3065 277.426 45.7362C277.642 46.1623 277.942 46.4872 278.326 46.7109C278.71 46.9311 279.155 47.0412 279.663 47.0412C279.993 47.0412 280.292 46.995 280.558 46.9027C280.828 46.8068 281.06 46.6648 281.256 46.4766C281.451 46.2848 281.602 46.0469 281.708 45.7628L282.923 46.1037C282.795 46.5156 282.58 46.8778 282.278 47.1903C281.977 47.4993 281.604 47.7408 281.16 47.9148C280.716 48.0852 280.217 48.1705 279.663 48.1705ZM288.053 48.1705C287.371 48.1705 286.769 47.9982 286.247 47.6538C285.725 47.3058 285.316 46.8157 285.022 46.1836C284.727 45.5479 284.58 44.7969 284.58 43.9304C284.58 43.071 284.727 42.3253 285.022 41.6932C285.316 41.0611 285.727 40.5728 286.252 40.2283C286.778 39.8839 287.385 39.7116 288.074 39.7116C288.607 39.7116 289.027 39.8004 289.336 39.978C289.649 40.152 289.887 40.3509 290.05 40.5746C290.217 40.7947 290.347 40.9759 290.439 41.1179H290.545V37.0909H291.803V48H290.588V46.7429H290.439C290.347 46.892 290.215 47.0803 290.045 47.3075C289.874 47.5312 289.631 47.7319 289.315 47.9094C288.999 48.0835 288.578 48.1705 288.053 48.1705ZM288.223 47.0412C288.727 47.0412 289.153 46.9098 289.501 46.647C289.849 46.3807 290.114 46.0131 290.295 45.5444C290.476 45.0721 290.567 44.527 290.567 43.9091C290.567 43.2983 290.478 42.7638 290.3 42.3058C290.123 41.8441 289.86 41.4854 289.512 41.2298C289.164 40.9705 288.734 40.8409 288.223 40.8409C287.69 40.8409 287.246 40.9776 286.891 41.2511C286.54 41.521 286.275 41.8885 286.098 42.3537C285.924 42.8153 285.837 43.3338 285.837 43.9091C285.837 44.4915 285.925 45.0206 286.103 45.4964C286.284 45.9687 286.55 46.3452 286.902 46.6257C287.257 46.9027 287.697 47.0412 288.223 47.0412Z" fill="black"/>
</svg>
